<svg id="Capa_1" enable-background="new 0 0 512 512" height="512" viewBox="0 0 512 512" width="512" xmlns="http://www.w3.org/2000/svg"><path d="m121 0v90h90v-90zm60 60h-30v-30h30z"/><path d="m451 0h-90v90h90zm-30 60h-30v-30h30z"/><path d="m61 0h30v90h-30z"/><path d="m241 0h30v90h-30z"/><path d="m301 0h30v90h-30z"/><path d="m271 225c0-24.814-20.186-45-45-45h-150c-8.276 0-15-6.724-15-15s6.724-15 15-15h375v-30h-375c-24.814 0-45 20.186-45 45s20.186 45 45 45h150c8.276 0 15 6.724 15 15v15h-241v272h512v-272h-241zm-90 76h30v30h-30zm0 60h30v30h-30zm-60-60h30v30h-30zm0 60h30v30h-30zm-30 90h-30v-30h30zm0-60h-30v-30h30zm0-60h-30v-30h30zm180 120h-150v-30h150zm0-60h-30v-30h30zm0-60h-30v-30h30zm150-30h30v30h-30zm0 60h30v30h-30zm0 60h30v30h-30zm-60-120h30v30h-30zm0 60h30v30h-30zm0 60h30v30h-30z"/></svg>