<svg id="Capa_1" enable-background="new 0 0 512 512" height="512" viewBox="0 0 512 512" width="512" xmlns="http://www.w3.org/2000/svg"><g><path d="m256 195.747c20.884 0 37.874-16.99 37.874-37.874 0-20.883-16.99-37.873-37.874-37.873s-37.874 16.99-37.874 37.873c0 20.884 16.99 37.874 37.874 37.874z"/><path d="m0 435.843h150.635v76.157h-150.635z"/><path d="m180.683 435.843h150.635v76.157h-150.635z"/><path d="m361.365 435.843h150.635v76.157h-150.635z"/><path d="m90.317 375.795h150.683v30.048h30v-30.048h150.683v30.048h30v-60.048h-180.683v-30.765c80.042-7.58 142.874-75.165 142.874-157.157 0-87.052-70.822-157.873-157.874-157.873s-157.874 70.821-157.874 157.873c0 81.992 62.832 149.577 142.874 157.157v30.765h-180.683v60.048h30zm97.809-217.922c0-6.999 1.066-13.753 3.042-20.11l-25.727-14.854 15-25.98 25.77 14.879c9.153-9.885 21.203-17.039 34.789-20.117v-29.726h30v29.726c13.585 3.078 25.635 10.231 34.789 20.117l25.77-14.879 15 25.98-25.727 14.854c1.976 6.357 3.042 13.111 3.042 20.11s-1.066 13.753-3.042 20.111l25.727 14.853-15 25.98-25.77-14.878c-9.153 9.885-21.203 17.039-34.788 20.117v29.725h-30v-29.725c-13.585-3.078-25.635-10.231-34.788-20.117l-25.77 14.878-15-25.98 25.727-14.853c-1.978-6.358-3.044-13.112-3.044-20.111z"/></g></svg>