<svg xmlns="http://www.w3.org/2000/svg" viewBox="0 0 512 512" style="enable-background:new 0 0 512 512">
<path d="M471.5,450.257c23.336-6.562,40.5-28.019,40.5-53.423c0-7.828-2.331-22.013-22.484-54.68c-10.347-16.773-20.55-30.526-20.979-31.104L456.5,294.862l-12.037,16.188c-0.429,0.578-10.632,14.331-20.979,31.104c-3.363,5.452-6.221,10.378-8.663,14.857V59.667h-37.333V0H134.512v59.667H97.179V357.01c-2.442-4.479-5.3-9.405-8.663-14.857c-10.347-16.773-20.55-30.526-20.979-31.104L55.5,294.862L43.463,311.05c-0.429,0.578-10.632,14.331-20.979,31.104C2.331,374.821,0,389.006,0,396.833c0,25.405,17.164,46.862,40.5,53.423V482H0v30h512v-30h-40.5V450.257z M97.179,482H70.5v-31.743c10.468-2.943,19.688-8.881,26.679-16.834V482z M196.333,441.416h-30v-42.667h30V441.416z M196.333,351.417h-30V308.75h30V351.417z M196.333,261.417h-30V218.75h30V261.417z M196.333,171.417h-30V128.75h30V171.417z M271,441.416h-30v-42.667h30V441.416z M271,351.417h-30V308.75h30V351.417z M271,261.417h-30V218.75h30V261.417z M271,171.417h-30V128.75h30V171.417zM345.667,441.416h-30v-42.667h30V441.416z M345.667,351.417h-30V308.75h30V351.417z M345.667,261.417h-30V218.75h30V261.417zM345.667,171.417h-30V128.75h30V171.417z M441.5,482h-26.679v-48.578c6.991,7.953,16.211,13.891,26.679,16.835V482z"/></svg>
