<svg xmlns="http://www.w3.org/2000/svg" viewBox="0 0 60.36 54.01">
  <g id="Layer_2" data-name="Layer 2">
    <g id="content">
      <g>
        <rect x="1.25" y="10.27" width="19.29" height="42.49" style="fill: #fff;stroke: #272726;stroke-miterlimit: 10;stroke-width: 2.5px"/>
        <rect x="39.82" y="19.37" width="19.29" height="33.4" style="fill: #fff;stroke: #272726;stroke-miterlimit: 10;stroke-width: 2.5px"/>
        <rect x="20.54" y="1.25" width="19.29" height="51.51" style="fill: #fff;stroke: #272726;stroke-miterlimit: 10;stroke-width: 2.5px"/>
        <g>
          <line x1="4.88" y1="15.34" x2="9.49" y2="15.34" style="fill: #fff;stroke: #272726;stroke-miterlimit: 10;stroke-width: 2.5px"/>
          <line x1="12.3" y1="15.34" x2="16.91" y2="15.34" style="fill: #fff;stroke: #272726;stroke-miterlimit: 10;stroke-width: 2.5px"/>
        </g>
        <g>
          <line x1="4.88" y1="19.88" x2="9.49" y2="19.88" style="fill: #fff;stroke: #272726;stroke-miterlimit: 10;stroke-width: 2.5px"/>
          <line x1="12.3" y1="19.88" x2="16.91" y2="19.88" style="fill: #fff;stroke: #272726;stroke-miterlimit: 10;stroke-width: 2.5px"/>
        </g>
        <g>
          <line x1="4.88" y1="24.42" x2="9.49" y2="24.42" style="fill: #fff;stroke: #272726;stroke-miterlimit: 10;stroke-width: 2.5px"/>
          <line x1="12.3" y1="24.42" x2="16.91" y2="24.42" style="fill: #fff;stroke: #272726;stroke-miterlimit: 10;stroke-width: 2.5px"/>
        </g>
        <g>
          <line x1="4.88" y1="28.96" x2="9.49" y2="28.96" style="fill: #fff;stroke: #272726;stroke-miterlimit: 10;stroke-width: 2.5px"/>
          <line x1="12.3" y1="28.96" x2="16.91" y2="28.96" style="fill: #fff;stroke: #272726;stroke-miterlimit: 10;stroke-width: 2.5px"/>
        </g>
        <g>
          <line x1="4.88" y1="33.5" x2="9.49" y2="33.5" style="fill: #fff;stroke: #272726;stroke-miterlimit: 10;stroke-width: 2.5px"/>
          <line x1="12.3" y1="33.5" x2="16.91" y2="33.5" style="fill: #fff;stroke: #272726;stroke-miterlimit: 10;stroke-width: 2.5px"/>
        </g>
        <g>
          <line x1="4.88" y1="38.04" x2="9.49" y2="38.04" style="fill: #fff;stroke: #272726;stroke-miterlimit: 10;stroke-width: 2.5px"/>
          <line x1="12.3" y1="38.04" x2="16.91" y2="38.04" style="fill: #fff;stroke: #272726;stroke-miterlimit: 10;stroke-width: 2.5px"/>
        </g>
        <path d="M10.9,44.48h0a2.59,2.59,0,0,1,2.59,2.59v5.7a0,0,0,0,1,0,0H8.31a0,0,0,0,1,0,0v-5.7A2.59,2.59,0,0,1,10.9,44.48Z" style="fill: #fff;stroke: #272726;stroke-miterlimit: 10;stroke-width: 2.5px"/>
        <g>
          <line x1="24.17" y1="15.34" x2="28.78" y2="15.34" style="fill: #fff;stroke: #272726;stroke-miterlimit: 10;stroke-width: 2.5px"/>
          <line x1="31.58" y1="15.34" x2="36.2" y2="15.34" style="fill: #fff;stroke: #272726;stroke-miterlimit: 10;stroke-width: 2.5px"/>
        </g>
        <g>
          <line x1="24.17" y1="19.88" x2="28.78" y2="19.88" style="fill: #fff;stroke: #272726;stroke-miterlimit: 10;stroke-width: 2.5px"/>
          <line x1="31.58" y1="19.88" x2="36.2" y2="19.88" style="fill: #fff;stroke: #272726;stroke-miterlimit: 10;stroke-width: 2.5px"/>
        </g>
        <g>
          <line x1="24.17" y1="24.42" x2="28.78" y2="24.42" style="fill: #fff;stroke: #272726;stroke-miterlimit: 10;stroke-width: 2.5px"/>
          <line x1="31.58" y1="24.42" x2="36.2" y2="24.42" style="fill: #fff;stroke: #272726;stroke-miterlimit: 10;stroke-width: 2.5px"/>
        </g>
        <g>
          <line x1="24.17" y1="28.96" x2="28.78" y2="28.96" style="fill: #fff;stroke: #272726;stroke-miterlimit: 10;stroke-width: 2.5px"/>
          <line x1="31.58" y1="28.96" x2="36.2" y2="28.96" style="fill: #fff;stroke: #272726;stroke-miterlimit: 10;stroke-width: 2.5px"/>
        </g>
        <g>
          <line x1="24.17" y1="33.5" x2="28.78" y2="33.5" style="fill: #fff;stroke: #272726;stroke-miterlimit: 10;stroke-width: 2.5px"/>
          <line x1="31.58" y1="33.5" x2="36.2" y2="33.5" style="fill: #fff;stroke: #272726;stroke-miterlimit: 10;stroke-width: 2.5px"/>
        </g>
        <g>
          <line x1="24.17" y1="6.26" x2="28.78" y2="6.26" style="fill: #fff;stroke: #272726;stroke-miterlimit: 10;stroke-width: 2.5px"/>
          <line x1="31.58" y1="6.26" x2="36.2" y2="6.26" style="fill: #fff;stroke: #272726;stroke-miterlimit: 10;stroke-width: 2.5px"/>
        </g>
        <g>
          <line x1="24.17" y1="10.8" x2="28.78" y2="10.8" style="fill: #fff;stroke: #272726;stroke-miterlimit: 10;stroke-width: 2.5px"/>
          <line x1="31.58" y1="10.8" x2="36.2" y2="10.8" style="fill: #fff;stroke: #272726;stroke-miterlimit: 10;stroke-width: 2.5px"/>
        </g>
        <g>
          <line x1="24.17" y1="38.04" x2="28.78" y2="38.04" style="fill: #fff;stroke: #272726;stroke-miterlimit: 10;stroke-width: 2.5px"/>
          <line x1="31.58" y1="38.04" x2="36.2" y2="38.04" style="fill: #fff;stroke: #272726;stroke-miterlimit: 10;stroke-width: 2.5px"/>
        </g>
        <path d="M30.18,44.48h0a2.59,2.59,0,0,1,2.59,2.59v5.7a0,0,0,0,1,0,0H27.59a0,0,0,0,1,0,0v-5.7A2.59,2.59,0,0,1,30.18,44.48Z" style="fill: #fff;stroke: #272726;stroke-miterlimit: 10;stroke-width: 2.5px"/>
        <g>
          <line x1="43.45" y1="28.96" x2="48.06" y2="28.96" style="fill: #fff;stroke: #272726;stroke-miterlimit: 10;stroke-width: 2.5px"/>
          <line x1="50.87" y1="28.96" x2="55.48" y2="28.96" style="fill: #fff;stroke: #272726;stroke-miterlimit: 10;stroke-width: 2.5px"/>
        </g>
        <g>
          <line x1="43.45" y1="24.42" x2="48.06" y2="24.42" style="fill: #fff;stroke: #272726;stroke-miterlimit: 10;stroke-width: 2.5px"/>
          <line x1="50.87" y1="24.42" x2="55.48" y2="24.42" style="fill: #fff;stroke: #272726;stroke-miterlimit: 10;stroke-width: 2.5px"/>
        </g>
        <g>
          <line x1="43.45" y1="33.5" x2="48.06" y2="33.5" style="fill: #fff;stroke: #272726;stroke-miterlimit: 10;stroke-width: 2.5px"/>
          <line x1="50.87" y1="33.5" x2="55.48" y2="33.5" style="fill: #fff;stroke: #272726;stroke-miterlimit: 10;stroke-width: 2.5px"/>
        </g>
        <g>
          <line x1="43.45" y1="38.04" x2="48.06" y2="38.04" style="fill: #fff;stroke: #272726;stroke-miterlimit: 10;stroke-width: 2.5px"/>
          <line x1="50.87" y1="38.04" x2="55.48" y2="38.04" style="fill: #fff;stroke: #272726;stroke-miterlimit: 10;stroke-width: 2.5px"/>
        </g>
        <path d="M49.47,44.48h0a2.59,2.59,0,0,1,2.59,2.59v5.7a0,0,0,0,1,0,0H46.88a0,0,0,0,1,0,0v-5.7A2.59,2.59,0,0,1,49.47,44.48Z" style="fill: #fff;stroke: #272726;stroke-miterlimit: 10;stroke-width: 2.5px"/>
      </g>
    </g>
  </g>
</svg>
