<?xml version="1.0" encoding="utf-8"?>
<!-- Generator: Adobe Illustrator 24.1.0, SVG Export Plug-In . SVG Version: 6.00 Build 0)  -->
<svg version="1.1" id="Layer_1" xmlns="http://www.w3.org/2000/svg" xmlns:xlink="http://www.w3.org/1999/xlink" x="0px" y="0px"
	 viewBox="0 0 1366 402.1" style="enable-background:new 0 0 1366 402.1;" xml:space="preserve">
<style type="text/css">
	.st0{fill:none;stroke:#FFFFFF;stroke-width:2.5;stroke-linecap:round;stroke-miterlimit:10;}
	.st1{fill:none;stroke:#FFFFFF;stroke-width:2.5;stroke-linecap:round;stroke-miterlimit:10;stroke-dasharray:0,7.004;}
	.st2{fill:none;stroke:#FFFFFF;stroke-width:2;stroke-miterlimit:10;}
	.st3{fill:none;stroke:#FFFFFF;stroke-width:2.5;stroke-linecap:round;stroke-miterlimit:10;stroke-dasharray:0,6.9927;}
</style>
<g id="Layer_2_1_">
	<g id="content">
		<g>
			<g>
				<g>
					<g>
						<line class="st0" x1="586.4" y1="403.6" x2="586.4" y2="403.6"/>
						<path class="st1" d="M593.4,403.9c19,0.3,71.1-2.4,86.3-39.4c31.1-75.4,30.2-141.7,71.5-141.7c48.2,0,51.2,129,93.3,166.8
							c46.7,41.9,101.4-18.4,135.3-148c24.9-95,38.9-237.3,88.7-237.3c57.6,0,80.9,242.9,108.9,330.9
							c21.2,66.6,70.4,68.4,113.2,68.4"/>
						<line class="st0" x1="1294.1" y1="403.6" x2="1294.1" y2="403.6"/>
					</g>
					<path class="st2" d="M649.6,403.6c0,0,72.7,5.8,91.1-35.3c30.4-68,33.9-113.5,74.2-113.5c47.1,0,40.9,60.6,82,94.7
						c45.5,37.8,103.7,24.9,136.8-92c24.3-85.7,38-182.3,86.5-182.3c56.2,0,78.9,187.3,106.3,266.7c21.3,61.8,67.7,61.4,113.9,61.7"
						/>
					<g>
						<line class="st0" x1="641.3" y1="403.7" x2="641.3" y2="403.7"/>
						<path class="st3" d="M648.3,403.9c14.4,0,48-2.2,70.3-19.4c17.2-13.3,30.9-36,61.2-31.9c28.1,3.8,28.3,22,70.4,43.3
							c46.7,23.6,121.3-10.4,155.3-83.5c24.9-53.6,38.9-121.7,88.7-121.7c57.6,0,80.9,124.8,108.9,174.4
							c21.8,38.6,73.1,38.6,116.7,38.6h41.5"/>
						<line class="st0" x1="1364.7" y1="403.7" x2="1364.7" y2="403.7"/>
					</g>
					<path class="st2" d="M1291.5,403.6c-12.7,0.1-25.3-2.4-37-7.4c-40.8-17.7-49.3-88.4-98.9-88.3c-45.8,0-59.2,64.1-93.1,85.8
						c-46.6,29.8-101.3-13.1-135.3-105.4c-24.9-67.6-38.9-141.6-88.7-141.6c-57.5,0-72.4,135.5-108.9,208.2
						c-24,47.7-73.1,48.7-116.7,48.7h-45"/>
				</g>
			</g>
		</g>
	</g>
</g>
</svg>
