<svg version="1" xmlns="http://www.w3.org/2000/svg" width="682.667" height="682.667" viewBox="0 0 512.000000 512.000000"><path d="M228.5 18.6c-17 10.2-31.6 18.8-32.4 19.3-1 .6-.1 1.6 3.5 3.7 2.7 1.5 13.7 7.9 24.4 14.3 10.7 6.3 29.1 17.1 40.8 23.9 16.7 9.9 21 12.8 20 13.7-.9.9-120.1 71.2-148 87.4l-2.8 1.6v41l3.8 2c2 1.1 6.1 3.4 9 5.2 2.9 1.8 5.4 3.3 5.6 3.3.1 0 9.1 5.2 20 11.5 10.8 6.3 20 11.5 20.4 11.5.4 0 .7-7.9.7-17.6 0-9.6.2-17.9.5-18.3.3-.4 14.2-8.8 31-18.6 16.8-9.7 32.5-19 35-20.5s12.6-7.5 22.5-13.2c21.4-12.5 43.9-25.6 58.8-34.5l10.9-6.4 32.1 19.3 32.2 19.4-.1 72.2c-.1 52.2.2 72.2 1 71.9.6-.3 11.9-7 25.1-15.1 13.2-8 26.4-15.9 29.3-17.6 4.8-2.8 5.2-3.3 5.3-6.8.1-2 .3-21.3.5-42.7.2-21.5.5-52.6.7-69.3l.3-30.3-14.6-8.6c-8-4.8-22.6-13.5-32.5-19.3-16.4-9.8-46.9-27.8-73.5-43.5-5.8-3.4-24.4-14.4-41.5-24.5-17-10.1-36.6-21.6-43.4-25.7-6.9-4-12.7-7.3-13-7.2-.3 0-14.5 8.3-31.6 18.5z"/><path d="M157.5 60.5c-2.2 1.3-4.7 2.8-5.5 3.2-.8.4-4 2.1-7 3.8-11.8 6.7-52.7 29.9-56 31.8-1.9 1.1-11.8 6.7-22 12.5s-21 11.9-24 13.5c-3 1.6-5.9 3.3-6.4 3.8-.5.4-1 16.4-1.1 35.6-.2 19.1-.6 64.9-1 101.8-.4 36.8-.7 78.2-.8 91.8l-.2 24.9 24 13.4C70.7 404 82.2 410.4 83 411c2 1.2 16.1 9 16.4 9 .2 0 .6-35.3.9-81.2.1-13.7.3-24.8.5-24.8s2.3 1.1 4.8 2.5c2.4 1.4 6.5 3.7 9.2 5.1 2.6 1.5 9.2 5.3 14.7 8.4 5.5 3.2 15.4 8.8 22 12.5 6.6 3.7 13.8 7.8 16 9 2.2 1.3 5.6 3.2 7.5 4.2 1.9 1.1 11.4 6.5 21.1 12 9.6 5.5 19.5 11.1 22 12.5 17 9.6 29.9 16.9 32.9 18.6l3.5 2.1 17.7-10.2 17.8-10.2V311.8l-3.7 2.2c-2.1 1.2-9.3 5.3-15.9 9.2l-12.2 6.9-3.8-2.1c-2.2-1.2-4.6-2.5-5.4-3.1-2.4-1.5-55.8-31.7-63-35.7-3.6-1.9-6.9-3.8-7.5-4.2-.5-.5-2.8-1.8-5-3-3.4-1.9-36.3-20.6-41.3-23.5-1-.6-8.8-5-17.4-9.8-8.6-4.8-15.9-9.6-16.2-10.5-.2-.9-.3-10-.1-20.2.2-10.2.5-26.3.6-35.7.1-9.5.5-17.7.8-18.1.5-.8 24.6-14.6 110.6-63.6 1.7-1 5.6-3.2 8.9-5 3.2-1.9 5.4-3.6 5-3.9-1.7-1-43.1-23.9-52.4-28.9-3-1.7-5.9-3.4-6.4-3.9-1.6-1.5-3.9-1-8.1 1.6z"/><path d="M327.5 181c-27.7 15.6-35.5 20.1-35.5 20.5 0 .2 6.6 4.3 14.8 9.2 8.1 4.8 15 9.2 15.3 9.6.6.9.5 24.2-.5 139.1l-.4 44.9-7.8 4.1c-4.4 2.3-12.2 6.5-17.4 9.2-5.2 2.8-14.2 7.6-20 10.7-5.8 3.1-12.9 6.9-15.9 8.5l-5.4 3-35.6-21.6c-19.6-11.8-43-26-52.1-31.4-19.6-11.8-18.7-11.2-26.9-16.4-3.7-2.2-7.2-4.4-7.9-4.8-1-.6-1.2 6.2-1.2 35.1l.2 35.8 39.4 24c21.7 13.2 40.7 24.7 42.2 25.6 1.5.9 10.8 6.6 20.7 12.6 9.9 6.1 19 11.5 20.2 12.2 2 1 5.5-.6 32-15 16.4-8.9 33.6-18.3 38.3-20.9 4.7-2.6 12.1-6.6 16.5-9 4.4-2.4 12.5-6.8 18-9.8 5.5-3 12.5-6.8 15.5-8.5 54.8-29.7 87.8-47.7 93.3-50.8 3.8-2.2 7.2-3.9 7.7-3.9 3 0 3.3-3.3 3.5-40.5 0-20.6-.1-37.5-.3-37.5-.2 0-2.2 1.1-4.5 2.4-2.3 1.3-6.7 3.7-9.7 5.3-3 1.7-9.5 5.2-14.5 8-4.9 2.7-13 7.2-18 9.8-4.9 2.7-11.9 6.5-15.5 8.5-3.6 2-7.2 3.9-8 4.3-.8.4-3.5 1.8-5.8 3.2-2.4 1.3-7.3 4-10.8 6l-6.4 3.6.5-88.8.5-88.8-17.3-10.3c-9.6-5.6-17.6-10.2-17.8-10.2-.2.1-10.7 5.9-23.4 13z"/></svg>