<svg width="1440" height="1239" viewBox="0 0 1440 1239" fill="none" xmlns="http://www.w3.org/2000/svg">
<g clip-path="url(#clip0_4003_1145)">
<path d="M960 120V0H1080M960 120H1080M960 120V240M1080 0V120M1080 0H1200V120M1080 120H1200M1080 120V240M1200 120V240M120 240H0V360M120 240H240V360M120 240V360M960 240H1080M960 240V360M1080 240H1200M1080 240V360M1200 240V360M120 360H0M120 360H240M120 360V480M0 360V480H120M240 360H360M240 360V480M360 360H480M360 360V480M480 360H600M480 360V480M600 360H720M600 360V480M720 360H840M720 360V480M840 360H960M840 360V480M960 360H1080M960 360V480M1080 360H1200M1080 360V480M1200 360H1320M1200 360V480M1320 360H1440V480M1320 360V480M120 480H240M240 480H360M360 480H480M360 480V600M480 480H600M480 480V600M600 480H720M600 480V600M720 480H840M720 480V600M840 480H960M840 480V600M960 480H1080M960 480V600M1080 480H1200M1080 480V600M1200 480H1320M1200 480V600M1320 480H1440M1320 480V600M1440 480V600M360 600H480M360 600V720H480M480 600H600M480 600V720M600 600H720M600 600V720M720 600H840M720 600V720M840 600H960M840 600V720M960 600H1080M960 600V720M1080 600H1200M1080 600V720M1200 600H1320M1320 600H1440M1320 600V720M1440 600V720M480 720H600M600 720H720M720 720H840M840 720H960M840 720V840M960 720H1080M960 720V840M1080 720V840M1320 720H1440M1320 720V840M1440 720V840M840 840H960M840 840V960M960 840H1080M960 840V960M1080 840V960M1320 840H1440M1320 840V960M1440 840V960M120 960V840H0V960M120 960H0M120 960V1080M0 960V1080M840 960H960M840 960V1080M960 960H1080M960 960V1080M1080 960V1080M1320 960H1440M1320 960V1080M1440 960V1080M120 1080H0M120 1080H240M120 1080V1200M0 1080V1200M240 1080H360M240 1080V1200M360 1080H480M360 1080V1200M480 1080H600M480 1080V1200M600 1080H720M600 1080V1200M720 1080H840M720 1080V1200M840 1080H960M840 1080V1200M960 1080H1080M960 1080V1200M1080 1080V1200M1320 1080H1440M1320 1080V1200M1440 1080V1200M120 1200H0M120 1200H240M120 1200V1320M0 1200V1320M240 1200H360M240 1200V1320M360 1200H480M360 1200V1320M480 1200H600M480 1200V1320M600 1200H720M600 1200V1320M720 1200H840M720 1200V1320M840 1200H960M840 1200V1320M960 1200H1080M960 1200V1320M1080 1200H1200M1080 1200V1320M1200 1200H1320M1200 1200V1320M1320 1200H1440M1320 1200V1320M1440 1200V1320M120 1320H0M120 1320H240M120 1320V1440M0 1320V1440M240 1320H360M240 1320V1440M360 1320H480M360 1320V1440M480 1320H600M480 1320V1440M600 1320H720M600 1320V1440M720 1320H840M720 1320V1440M840 1320H960M840 1320V1440M960 1320H1080M960 1320V1440M1080 1320H1200M1080 1320V1440M1200 1320H1320M1200 1320V1440M1320 1320H1440M1320 1320V1440M1440 1320V1440M120 1440H0M120 1440H240M120 1440V1560M0 1440V1560H120M240 1440H360M240 1440V1560M360 1440H480M360 1440V1560M480 1440H600M480 1440V1560M600 1440H720M600 1440V1560M720 1440H840M720 1440V1560M840 1440H960M840 1440V1560M960 1440H1080M960 1440V1560M1080 1440H1200M1080 1440V1560M1200 1440H1320M1200 1440V1560M1320 1440H1440M1320 1440V1560M1440 1440V1560H1320M120 1560H240M240 1560H360M360 1560H480M480 1560H600M600 1560H720M720 1560H840M840 1560H960M960 1560H1080M1080 1560H1200M1200 1560H1320" stroke="#353D42" stroke-dasharray="1 2"/>
</g>
<defs>
<clipPath id="clip0_4003_1145">
<rect width="1440" height="1239" fill="white"/>
</clipPath>
</defs>
</svg>
