<svg width="360" height="360" viewBox="0 0 360 360" fill="none" xmlns="http://www.w3.org/2000/svg">
<g clip-path="url(#clip0_1_2)">
<mask id="mask0_1_2" style="mask-type:luminance" maskUnits="userSpaceOnUse" x="0" y="0" width="360" height="360">
<path d="M360 0H0V360H360V0Z" fill="white"/>
</mask>
<g mask="url(#mask0_1_2)">
<mask id="mask1_1_2" style="mask-type:luminance" maskUnits="userSpaceOnUse" x="0" y="0" width="1200" height="360">
<path d="M1196 0H4C1.79086 0 0 1.79086 0 4V356C0 358.209 1.79086 360 4 360H1196C1198.21 360 1200 358.209 1200 356V4C1200 1.79086 1198.21 0 1196 0Z" fill="white"/>
</mask>
<g mask="url(#mask1_1_2)">
<path d="M216.273 0H252.318M252.318 0V36M252.318 0H288.364M216.273 36H252.318M252.318 36H288.364M288.364 0V36M288.364 0H324.409M288.364 36H324.409M324.409 0V36M324.409 0H360.455V36H324.409M36.0455 72V108M36.0455 108H0M36.0455 108H72.0909M36.0455 108V144M0 72V108M0 108V144M72.0909 72V108M72.0909 108H108.136V72M72.0909 108V144M36.0455 144H0M36.0455 144H72.0909M36.0455 144V180M0 144V180M72.0909 144V180M36.0455 180H0M36.0455 180H72.0909M36.0455 180V216M0 180V216M72.0909 180H108.136V216M72.0909 180V216H108.136M108.136 216H144.182V252M108.136 216V252H144.182M144.182 252V288M144.182 288H108.136M144.182 288H180.227M144.182 288V324H180.227M180.227 288H216.273V324M180.227 288V324M180.227 324H216.273M180.227 324V360M216.273 324H252.318M216.273 324V360M180.227 360H144.182M180.227 360H216.273M252.318 324H288.364V360H252.318M252.318 324V360M216.273 360H252.318" stroke="#215F74" stroke-width="0.5" stroke-dasharray="1 1"/>
<path d="M72.0909 0H36.0455H0V36V72H36.0455H72.0909M72.0909 0V36V72M72.0909 0H108.136H144.182M72.0909 72H108.136H144.182M144.182 0V36M144.182 0H180.227M144.182 36H180.227M144.182 36V72M180.227 0V36M180.227 0H216.273V36H180.227M180.227 36V72H144.182M72.0909 252V216H36.0455H0V252V288M72.0909 252H108.136V288M72.0909 252V288M0 288H36.0455H72.0909M0 288V324V360H36.0455H72.0909M108.136 288H72.0909M108.136 288V324M72.0909 288V324M72.0909 360V324M72.0909 360H108.136M72.0909 324H108.136M108.136 324V360M108.136 324H144.2V360H108.136" stroke="#2995B9" stroke-width="0.5"/>
</g>
</g>
</g>
<defs>
<clipPath id="clip0_1_2">
<rect width="360" height="360" fill="white"/>
</clipPath>
</defs>
</svg>
