<svg width="360" height="360" viewBox="0 0 360 360" fill="none" xmlns="http://www.w3.org/2000/svg">
<g clip-path="url(#clip0_1_14)">
<mask id="mask0_1_14" style="mask-type:luminance" maskUnits="userSpaceOnUse" x="0" y="0" width="360" height="360">
<path d="M360 0H0V360H360V0Z" fill="white"/>
</mask>
<g mask="url(#mask0_1_14)">
<mask id="mask1_1_14" style="mask-type:luminance" maskUnits="userSpaceOnUse" x="-840" y="0" width="1200" height="360">
<path d="M356 0H-836C-838.209 0 -840 1.79086 -840 4V356C-840 358.209 -838.209 360 -836 360H356C358.209 360 360 358.209 360 356V4C360 1.79086 358.209 0 356 0Z" fill="white"/>
</mask>
<g mask="url(#mask1_1_14)">
<path d="M35.8189 0H-0.226562V36H35.8189M35.8189 0V36M35.8189 0H71.8643M35.8189 36H71.8643M71.8643 0V36M71.8643 0H107.91V36M71.8643 36H107.91M107.91 36H143.955M143.955 36V72H180.001M143.955 36V0M143.955 36H180.001V72M180.001 72H216.046M216.046 36V72M216.046 72H252.092M216.046 72V108H234.069H252.092M252.092 144V180H288.137M288.137 180V144M288.137 180H324.183M288.137 180V216M288.137 216H324.183M288.137 216V252M252.092 252H216.046V288H180.001M180.001 288H143.955V324M180.001 288V324H143.955M143.955 324H107.91M143.955 324V360H107.91M71.8643 324H35.8189V360H71.8643M71.8643 324H107.91M71.8643 324V360M71.8643 360H107.91M107.91 324V360" stroke="#215F74" stroke-width="0.5" stroke-dasharray="1 1"/>
<path d="M216.045 0H180V36H216.045M216.045 0V36M216.045 0H252.091M216.045 36H252.091M252.091 0V36M252.091 0H288.136M252.091 36H288.136M252.091 36V72M288.136 0V36M288.136 0H324.182H360.227V36V72M288.136 36V72M252.091 72H288.136M252.091 72V108M360.227 72H324.182H288.136M360.227 72V108V144M288.136 72V108M252.091 108H288.136M252.091 108V144H288.136M288.136 108V144M360.227 144H324.182M360.227 144V180M288.136 144H324.182M324.182 144V180M324.182 180H360.227M324.182 180V216M360.227 180V216M324.182 216H360.227M324.182 216V252M360.227 216V252M324.182 252H288.136M324.182 252H360.227M324.182 252V288M360.227 252V288M288.136 252H252.091V288M288.136 252V288M252.091 288H216.045V324M252.091 288H288.136M288.136 288H324.182M288.136 288V324V360M324.182 288H360.227M360.227 288V324V360H324.182H288.136M216.045 324H180V360H216.045M216.045 324V360M288.136 360H252.091H216.045" stroke="#2995B9" stroke-width="0.5"/>
</g>
</g>
</g>
<defs>
<clipPath id="clip0_1_14">
<rect width="360" height="360" fill="white"/>
</clipPath>
</defs>
</svg>
