<svg width="404" height="336" viewBox="0 0 404 336" fill="none" xmlns="http://www.w3.org/2000/svg">
<path d="M311.5 108L219 54.5L311.5 1L403 56L311.5 108Z" fill="#215F74" fill-opacity="0.83" stroke="white" stroke-opacity="0.9"/>
<path d="M219 143.5V54.5L311 107L311.5 195.5L219 143.5Z" fill="#215F74" stroke="white" stroke-opacity="0.9"/>
<path d="M311 107L311.5 195.5L402 140V56.5L311 107Z" fill="#215F74" stroke="white" stroke-opacity="0.9"/>
<path d="M204.5 176L112 122.5L204.5 69L296 124L204.5 176Z" fill="#215F74" fill-opacity="0.83" stroke="white" stroke-opacity="0.9"/>
<path d="M112 211.5V122.5L204 175L204.5 263.5L112 211.5Z" fill="#215F74" stroke="white" stroke-opacity="0.9"/>
<path d="M204 175L204.5 263.5L295 208V124.5L204 175Z" fill="#215F74" stroke="white" stroke-opacity="0.9"/>
<path d="M93.5 247L1 193.5L93.5 140L185 195L93.5 247Z" fill="#215F74" fill-opacity="0.83" stroke="white" stroke-opacity="0.9"/>
<path d="M1 282.5V193.5L93 246L93.5 334.5L1 282.5Z" fill="#215F74" stroke="white" stroke-opacity="0.9"/>
<path d="M93 246L93.5 334.5L184 279V195.5L93 246Z" fill="#215F74" stroke="white" stroke-opacity="0.9"/>
</svg>
