<svg xmlns="http://www.w3.org/2000/svg" viewBox="0 0 37.51 37.51">
  <g id="Layer_2" data-name="Layer 2">
    <g id="bg">
      <g>
        <circle cx="18.75" cy="18.75" r="18.75" style="fill: #fff"/>
        <path d="M14.28,29.39A14,14,0,0,0,28.35,15.32c0-.22,0-.43,0-.64a10.36,10.36,0,0,0,2.47-2.56,10,10,0,0,1-2.84.77,5,5,0,0,0,2.17-2.73A10,10,0,0,1,27,11.36a5,5,0,0,0-8.56,3.38,5.22,5.22,0,0,0,.13,1.13A14.06,14.06,0,0,1,8.38,10.7a4.95,4.95,0,0,0,1.53,6.6,4.83,4.83,0,0,1-2.24-.61v.06a5,5,0,0,0,4,4.85,5,5,0,0,1-1.3.17,4.73,4.73,0,0,1-.93-.09A5,5,0,0,0,14,25.12a10,10,0,0,1-6.14,2.12,11.5,11.5,0,0,1-1.18-.07,14,14,0,0,0,7.58,2.22" style="fill: #272726"/>
      </g>
    </g>
  </g>
</svg>
