<svg xmlns="http://www.w3.org/2000/svg" viewBox="0 0 38.45 37.51">
  <g id="Layer_2" data-name="Layer 2">
    <g id="bg">
      <path d="M19.23,0a19.23,19.23,0,0,0-6.08,37.47c1,.18,1.31-.41,1.31-.92s0-2,0-3.58C9.09,34.13,8,30.7,8,30.7a5.11,5.11,0,0,0-2.14-2.81c-1.74-1.2.14-1.17.14-1.17a4,4,0,0,1,2.94,2,4.1,4.1,0,0,0,5.6,1.6,4.06,4.06,0,0,1,1.22-2.57C11.45,27.24,7,25.59,7,18.22a7.44,7.44,0,0,1,2-5.16A6.88,6.88,0,0,1,9.13,8s1.61-.51,5.28,2a18.43,18.43,0,0,1,9.63,0c3.67-2.48,5.29-2,5.29-2a6.92,6.92,0,0,1,.18,5.09,7.4,7.4,0,0,1,2,5.16c0,7.39-4.49,9-8.78,9.49A4.61,4.61,0,0,1,24,31.27c0,2.57,0,4.64,0,5.28s.34,1.11,1.32.92A19.23,19.23,0,0,0,19.23,0ZM7.2,27.39c0,.1-.19.12-.33.06s-.22-.19-.17-.29S6.89,27,7,27.1,7.25,27.29,7.2,27.39Zm1,.84c-.09.09-.27.05-.4-.09s-.14-.31,0-.39.27-.05.39.08S8.24,28.15,8.15,28.23Zm.65,1.08c-.12.09-.31,0-.43-.16s-.12-.38,0-.46.31,0,.43.16S8.92,29.23,8.8,29.31Zm1.09,1.25c-.1.12-.33.09-.49-.07A.36.36,0,0,1,9.29,30c.11-.12.33-.08.5.07S10,30.45,9.89,30.56Zm1.42.43c-.05.15-.26.22-.48.15s-.36-.24-.31-.39.26-.23.48-.16S11.36,30.83,11.31,31Zm1.62.18c0,.15-.18.29-.41.29s-.42-.13-.42-.28.18-.29.41-.3S12.93,31,12.93,31.17Zm1.58-.07c0,.16-.13.32-.36.36s-.43-.05-.46-.21.14-.32.36-.36S14.48,31,14.51,31.1Z" style="fill: #fff"/>
    </g>
  </g>
</svg>
