<svg viewBox="0 0 529.09 341.7" xmlns="http://www.w3.org/2000/svg" xmlns:xlink="http://www.w3.org/1999/xlink" fill="#fff"><clipPath id="a" transform="translate(-1.7 -134.59)"><path d="m0 0h529.76v557.89h-529.76z"/></clipPath><g clip-path="url(#a)"><path d="m495.41 476.29h-409.22a35.44 35.44 0 0 1 -35.38-35.38v-19.4a5.51 5.51 0 0 1 11 0v19.23a24.38 24.38 0 0 0 24.36 24.53h409.24a24.38 24.38 0 0 0 24.36-24.53v-221.74a24.41 24.41 0 0 0 -24.36-24.36h-19.23a5.51 5.51 0 1 1 0-11h19.23a35.42 35.42 0 0 1 35.38 35.36v221.74a35.44 35.44 0 0 1 -35.38 35.55" transform="translate(-1.7 -134.59)"/><path d="m446.3 427.07h-409.22a35.44 35.44 0 0 1 -35.38-35.38v-221.69a35.42 35.42 0 0 1 35.38-35.38h409.22a35.42 35.42 0 0 1 35.39 35.38v221.69a35.44 35.44 0 0 1 -35.39 35.38m-409.22-281.47a24.38 24.38 0 0 0 -24.36 24.4v221.68a24.41 24.41 0 0 0 24.36 24.32h409.22a24.41 24.41 0 0 0 24.37-24.36v-221.64a24.38 24.38 0 0 0 -24.37-24.4z" transform="translate(-1.7 -134.59)"/><path d="m396.54 377.09h-309.68a5.52 5.52 0 0 1 -5.52-5.52 24.41 24.41 0 0 0 -24.52-24.19 5.51 5.51 0 0 1 -5.51-5.51v-122.13a5.51 5.51 0 0 1 5.51-5.51 24.36 24.36 0 0 0 24.52-24.53 5.52 5.52 0 0 1 5.52-5.51h309.68a5.5 5.5 0 0 1 5.51 5.51 24.36 24.36 0 0 0 24.36 24.36 5.51 5.51 0 0 1 5.51 5.51v122.3a5.5 5.5 0 0 1 -5.51 5.51 24.41 24.41 0 0 0 -24.36 24.2 5.51 5.51 0 0 1 -5.51 5.51m-304.61-11h299.54a35.44 35.44 0 0 1 29.43-29.44v-111.84a35.43 35.43 0 0 1 -29.43-29.6h-299.54a35.45 35.45 0 0 1 -29.6 29.6v112a35.44 35.44 0 0 1 29.6 29.27z" transform="translate(-1.7 -134.59)"/><path d="m127.41 286.31h-17.91a5.51 5.51 0 0 1 0-11h17.91a5.51 5.51 0 1 1 0 11" transform="translate(-1.7 -134.59)"/><path d="m373.89 286.31h-17.89a5.51 5.51 0 0 1 0-11h17.92a5.51 5.51 0 0 1 0 11" transform="translate(-1.7 -134.59)"/><path d="m241.72 327a26 26 0 0 1 -26-25.9 5.52 5.52 0 0 1 11 0 14.93 14.93 0 1 0 14.93-14.83 25.9 25.9 0 1 1 25.91-25.9 5.52 5.52 0 0 1 -11 0 14.93 14.93 0 1 0 -14.88 14.88 25.9 25.9 0 1 1 0 51.75z" transform="translate(-1.7 -134.59)"/><path d="m241.72 286.26a5.5 5.5 0 1 1 3.9-1.61 5.51 5.51 0 0 1 -3.9 1.61" transform="translate(-1.7 -134.59)"/><path d="m241.72 338.06a5.51 5.51 0 0 1 -5.51-5.51v-11a5.51 5.51 0 0 1 11 0v11a5.5 5.5 0 0 1 -5.51 5.51" transform="translate(-1.7 -134.59)"/><path d="m241.72 245.53a5.51 5.51 0 0 1 -5.51-5.51v-11.02a5.51 5.51 0 0 1 11 0v11a5.5 5.5 0 0 1 -5.51 5.51" transform="translate(-1.7 -134.59)"/></g></svg>