<svg viewBox="-135 0 1127.34 535.92" xmlns="http://www.w3.org/2000/svg" xmlns:xlink="http://www.w3.org/1999/xlink" fill="#fff"><clipPath id="a" transform="translate(0 -7.84)"><path d="m0 0h529.76v557.89h-529.76z"/></clipPath><g clip-path="url(#a)"><path d="m264.88 169.12c-44.24 0-80.64-36.4-80.64-80.64s36.4-80.64 80.64-80.64 80.64 36.4 80.64 80.64-36.4 80.64-80.64 80.64m0-144.48a63.84 63.84 0 1 0 63.84 63.84 63.81 63.81 0 0 0 -63.84-63.84" transform="translate(0 -7.84)"/><path d="m328.72 543.76h-16.8v-127.12h8.4a27.48 27.48 0 0 0 27.44-27.44v-162.4a27.48 27.48 0 0 0 -27.44-27.44h-110.88a27.49 27.49 0 0 0 -27.44 27.44v162.4a27.49 27.49 0 0 0 27.45 27.44h8.39v126.56h-16.84v-110.32c-20.12-3.88-35.8-21.88-35.8-43.12v-162.4a44 44 0 0 1 44.23-44.24h110.32a44 44 0 0 1 44.25 44.24v162.4c0 21.28-15.68 39.2-35.84 43.12v110.88z" transform="translate(0 -7.84)"/><path d="m76.72 234.08a62.72 62.72 0 1 1 62.72-62.72 62.62 62.62 0 0 1 -62.72 62.72m0-108.64a45.92 45.92 0 1 0 45.92 45.92 46.13 46.13 0 0 0 -45.92-45.92" transform="translate(0 -7.84)"/><path d="m127.12 514.08h-16.8v-97.44h8.4a18.64 18.64 0 0 0 18.48-18.48v-122.64a18.64 18.64 0 0 0 -18.48-18.52h-83.44a18.64 18.64 0 0 0 -18.48 18.52v122.64a18.64 18.64 0 0 0 18.48 18.48h8.4v97.44h-16.8v-81.76a35.32 35.32 0 0 1 -26.88-34.16v-122.64a35.13 35.13 0 0 1 35.28-35.28h82.88a35.13 35.13 0 0 1 35.28 35.28v122.64c0 16.8-11.76 30.8-26.88 34.16v81.76z" transform="translate(0 -7.84)"/><path d="m453 236.88a62.72 62.72 0 1 1 62.72-62.72c0 34.16-28 62.72-62.72 62.72m0-109.2a45.92 45.92 0 1 0 46 45.92 46.13 46.13 0 0 0 -46-45.92" transform="translate(0 -7.84)"/><path d="m502.88 516.88h-16.8v-97.44h8.4a18.64 18.64 0 0 0 18.52-18.44v-122.68a18.64 18.64 0 0 0 -18.47-18.48h-83.53a18.64 18.64 0 0 0 -18.48 18.48v122.68a18.64 18.64 0 0 0 18.48 18.44h8.4v97.44h-16.77v-81.76a35.32 35.32 0 0 1 -26.87-34.12v-122.68a35.13 35.13 0 0 1 35.24-35.32h83.44a35.13 35.13 0 0 1 35.28 35.28v122.72c0 16.8-11.76 30.8-26.88 34.16z" transform="translate(0 -7.84)"/><path d="m995.85 66.88c12-14.86 27.62 5.44 38.2 12.61a12.49 12.49 0 0 1 -16.05 19.09c-8.5-9.26-31.44-15.92-22.11-31.7m-60.57-13.49c9.32 2.21 17.82 7.57 27.11 9.1a12.54 12.54 0 0 0 4.87-24c-12.18-3.7-33.16-18.48-40.25-.72a12.49 12.49 0 0 0 8.27 15.6zm151 140.56c5.93 10.35 4.14 30.89 19.47 31.63a12.54 12.54 0 0 0 12-15.81c-4.74-12-6.06-37.43-24.41-32a12.46 12.46 0 0 0 -7.1 16.15zm-21.5-42.16a12.48 12.48 0 0 0 21-13.53c-8-10-16.93-33.95-32.79-23.27-13.56 12.35 6.39 25.42 11.83 36.8zm-199.56-34a12.48 12.48 0 0 0 -12.48 12.49v149.72a12.46 12.46 0 0 0 12.48 12.48h74.89a12.48 12.48 0 0 0 0-25h-62.44v-137.25a12.48 12.48 0 0 0 -12.48-12.49zm185.83 346.89a261.22 261.22 0 0 0 76.25-184.68 12.46 12.46 0 0 0 -12.48-12.48c-11.07 1.25-37.29-5.67-37.44 12.48.21 13.6 14.46 12.92 24.33 12.48a235.86 235.86 0 0 1 -60.5 145.89c-6.66-7.29-16.25-17.77-26-8.33-9.44 9.72 1.05 19.33 8.33 26a235.86 235.86 0 0 1 -145.89 60.5c.44-9.87 1.11-24.12-12.48-24.33-13.58.21-12.92 14.47-12.48 24.33a235.88 235.88 0 0 1 -145.87-60.54c7.29-6.66 17.77-16.25 8.34-26-9.73-9.44-19.34 1.05-26 8.33a235.87 235.87 0 0 1 -60.51-145.89c9.87.44 24.12 1.11 24.33-12.48-.2-13.58-14.47-12.92-24.33-12.48a235.91 235.91 0 0 1 60.51-145.89c6.65 7.29 16.25 17.77 26 8.34 9.43-9.72-1.05-19.34-8.34-26a235.89 235.89 0 0 1 145.89-60.44c-.43 10-1.11 24 12.48 24.33 18.13-.12 11.25-26.41 12.48-37.44a12.46 12.46 0 0 0 -12.48-12.48 261.2 261.2 0 0 0 -184.61 76.28c-237.95 254.9 115.65 608.35 370.44 370.45" transform="translate(0 -7.84)"/></g></svg>