<svg viewBox="-80 0 625.44 525.44" xmlns="http://www.w3.org/2000/svg" xmlns:xlink="http://www.w3.org/1999/xlink" fill="#fff"><clipPath id="a" transform="translate(-1.12 -17.9)"><path d="m0 0h529.76v557.89h-529.76z"/></clipPath><g clip-path="url(#a)"><path d="m395.06 66.88c12-14.86 27.63 5.44 38.2 12.61a12.49 12.49 0 0 1 -16.09 19.09c-8.5-9.26-31.44-15.92-22.11-31.7m-60.53-13.49c9.32 2.21 17.82 7.57 27.11 9.1a12.54 12.54 0 0 0 4.88-24c-12.19-3.7-33.16-18.48-40.25-.72a12.5 12.5 0 0 0 8.26 15.6zm150.97 140.61c5.94 10.35 4.14 30.89 19.48 31.63a12.53 12.53 0 0 0 12-15.81c-4.73-12-6.06-37.43-24.41-32a12.47 12.47 0 0 0 -7.07 16.18zm-21.5-42.21a12.48 12.48 0 0 0 21-13.53c-8-10-16.93-33.95-32.79-23.27-13.56 12.35 6.4 25.42 11.83 36.8zm-199.55-34a12.5 12.5 0 0 0 -12.45 12.44v149.77a12.48 12.48 0 0 0 12.49 12.48h74.88a12.48 12.48 0 0 0 0-25h-62.45v-137.25a12.48 12.48 0 0 0 -12.48-12.49zm185.82 346.84a261.27 261.27 0 0 0 76.29-184.63 12.46 12.46 0 0 0 -12.48-12.48c-11.08 1.25-37.29-5.67-37.45 12.48.22 13.6 14.47 12.92 24.33 12.48a235.86 235.86 0 0 1 -60.5 145.89c-6.65-7.29-16.25-17.77-26-8.33-9.43 9.72 1 19.33 8.33 26a235.83 235.83 0 0 1 -145.88 60.5c.43-9.87 1.11-24.12-12.48-24.33-13.59.21-12.93 14.47-12.49 24.33a235.85 235.85 0 0 1 -145.86-60.54c7.29-6.66 17.76-16.25 8.33-26-9.73-9.44-19.34 1.05-26 8.33a235.86 235.86 0 0 1 -60.5-145.89c9.86.44 24.12 1.11 24.33-12.48-.21-13.58-14.47-12.92-24.33-12.48a235.9 235.9 0 0 1 60.5-145.89c6.66 7.29 16.25 17.77 26 8.34 9.43-9.72-1-19.34-8.33-26a235.86 235.86 0 0 1 145.92-60.44c-.43 10-1.11 24 12.49 24.33 18.12-.12 11.24-26.41 12.48-37.44a12.48 12.48 0 0 0 -12.52-12.48 261.2 261.2 0 0 0 -184.62 76.28c-237.95 254.9 115.66 608.35 370.44 370.45" transform="translate(-1.12 -17.9)"/></g></svg>