<svg xmlns="http://www.w3.org/2000/svg" viewBox="0 0 59.79 58.32">
  <g id="Layer_2" data-name="Layer 2">
    <g id="content">
      <g>
        <circle cx="36.36" cy="13.34" r="12.09" style="fill: none;stroke: #272726;stroke-miterlimit: 10;stroke-width: 2.5px"/>
        <path d="M29.76,39.55H41.25A3.71,3.71,0,0,0,45,35.84h0a3.71,3.71,0,0,0-3.71-3.72H35.72a34.26,34.26,0,0,1-11.56-2h0c-2.52-.85-7.55-.44-9.43,1.45h0L9.4,35.93,21.6,49.47l1.06-.87a15.23,15.23,0,0,1,9.62-3.44h5.1a14.6,14.6,0,0,0,10.47-4.42L57.35,31a4,4,0,0,0,.06-5.67,4.14,4.14,0,0,0-5.85,0l-7.82,7.86" style="fill: #fff;stroke: #272726;stroke-miterlimit: 10;stroke-width: 2.5px"/>
        <rect x="0.17" y="40.83" width="23.36" height="10.33" rx="2.56" transform="translate(38.09 6.4) rotate(47.98)" style="fill: #fff;stroke: #272726;stroke-miterlimit: 10;stroke-width: 2.5px"/>
        <g>
          <path d="M39.26,6.79H36.35a3.29,3.29,0,1,0,0,6.57h0a3.28,3.28,0,0,1,0,6.56H33.44" style="fill: none;stroke: #272726;stroke-miterlimit: 10;stroke-width: 2.5px"/>
          <line x1="36.36" y1="6.79" x2="36.36" y2="4.54" style="fill: none;stroke: #272726;stroke-miterlimit: 10;stroke-width: 2.5px"/>
          <line x1="36.36" y1="22.15" x2="36.36" y2="19.89" style="fill: none;stroke: #272726;stroke-miterlimit: 10;stroke-width: 2.5px"/>
        </g>
      </g>
    </g>
  </g>
</svg>
