<?xml version="1.0" encoding="utf-8"?>
<!-- Generator: Adobe Illustrator 24.1.0, SVG Export Plug-In . SVG Version: 6.00 Build 0)  -->
<svg version="1.1" id="Layer_1" xmlns="http://www.w3.org/2000/svg" xmlns:xlink="http://www.w3.org/1999/xlink" x="0px" y="0px"
	 viewBox="0 0 1366 215.7" style="enable-background:new 0 0 1366 215.7;" xml:space="preserve">
<style type="text/css">
	.st0{fill:none;stroke:#215F74;stroke-width:2.5;stroke-linecap:round;stroke-miterlimit:10;stroke-dasharray:0,7.7168;}
	.st1{fill:none;stroke:#215F74;stroke-width:2;stroke-miterlimit:10;}
</style>
<g id="Layer_2_1_">
	<g id="content">
		<g>
			<g>
				<g>
					<path class="st0" d="M588.7-2.7c0,0-46.4-2.6-61.5,23c-24.8,42.3-24.1,93.3-57.1,93.3c-38.5,0-40.9-86.2-74.5-107.4
						c-37.3-23.5-80.9,10.3-108.1,83.1c-19.9,53.3-31,121.2-70.8,121.2c-46,0-64.6-124.3-86.9-173.7C112.4-1.7,71.4-1.7,36.6-1.7
						H0.7"/>
					<path class="st1" d="M590.5-2.4c0,0-30.2-2.5-42.7,15C527,41.4,527.6,76.1,500,76.1c-32.2,0-34.2-36.8-62.3-51.3
						c-31.1-16-67.6,7-90.3,56.6c-16.6,36.3-26.2,63.9-59.2,60.6c-38.2-3.8-54-84.6-72.6-118.2C201.1-2.5,166.9-2.4,137.8-2.4h-20.5
						"/>
				</g>
			</g>
		</g>
	</g>
</g>
</svg>
