<svg width="50" height="50" xmlns="http://www.w3.org/2000/svg" xmlns:xlink="http://www.w3.org/1999/xlink" viewBox="0 -8 80 80" fill="#fff" fill-rule="evenodd" stroke="#000" stroke-linecap="round" stroke-linejoin="round"><use xlink:href="#bq0" x=".5"/><defs><linearGradient id="bq1" x1="50%" y1="0%" x2="50%" y2="100%"><stop offset="0%" stop-color="#4387fd"/><stop offset="100%" stop-color="#4683ea"/></linearGradient></defs><symbol id="bq0" overflow="visible"><g stroke="none"><path d="M79.25 37.5q1.5-2.5 0-5L61.5 2q-1.5-2-4-2h-35q-2.5 0-4 2L.75 32.5q-1.5 2.5 0 5L18.5 68q1.5 2 4 2h35q2.5 0 4-2z" fill="url(#bq1)"/><path d="M57.5 70h-3L30 45.5l-3-13 6.5-9h16l23.956 23.956L61.5 68q-1.5 2-4 2z" fill="#000" fill-opacity=".07"/><path d="M52.152 44.146A14.964 14.964 0 0050.83 24.44a14.97 14.97 0 00-21.213 0 14.97 14.97 0 000 21.213 14.965 14.965 0 0019.706 1.322l5.47 5.47q.53.53 1.06 0l1.768-1.768q.53-.53 0-1.06zM29 35c0-5.956 4.906-10.75 11-10.75S51 29.045 51 35s-4.906 10.75-11 10.75S29 40.956 29 35zm4.25 3.34c.655 1.376 1.953 2.63 3.25 3.4v-7.5h-3.25zm5.25 4.266a7.874 7.874 0 003 0V30.5h-3zm5.25-1.356c1.358-.9 2.917-2.458 3.5-4V35.5h-3.5z"/></g></symbol></svg>