<svg xmlns="http://www.w3.org/2000/svg" xmlns:xlink="http://www.w3.org/1999/xlink" viewBox="0 0 81 71" fill="#fff" fill-rule="evenodd" stroke="#000" stroke-linecap="round" stroke-linejoin="round"><use xlink:href="#a" x=".5"/><defs><linearGradient id="b" x1="50%" y1="0%" x2="50%" y2="100%"><stop offset="0%" stop-color="#4387fd"/><stop offset="100%" stop-color="#4683ea"/></linearGradient></defs><symbol id="a" overflow="visible"><g stroke="none"><path d="M79.25 37.5q1.5-2.5 0-5L61.5 2q-1.5-2-4-2h-35q-2.5 0-4 2L.75 32.5q-1.5 2.5 0 5L18.5 68q1.5 2 4 2h35q2.5 0 4-2z" fill="url(#b)"/><path d="M74.1 46.35l-19.6-19.6-7 .75-21 5.75 6 6-5.75 5.25L52.25 70h5.25q2.5 0 4-2z" fill="#000" fill-opacity=".07"/><path d="M27.25 26.5q-.75 0-.75.75v5.5q0 .75.75.75h26.5q.75 0 .75-.75v-5.5q0-.75-.75-.75zM47.5 30c0-1.108.892-2 2-2s2 .892 2 2-.892 2-2 2-2-.892-2-2z"/></g><path d="M27.25 37.5q-.75 0-.75.75v5.5q0 .75.75.75h26.5q.75 0 .75-.75v-5.5q0-.75-.75-.75zM47.5 41c0-1.108.892-2 2-2s2 .892 2 2-.892 2-2 2-2-.892-2-2z" stroke="none"/></symbol></svg>