<svg height="189.8" width="189.8" xmlns="http://www.w3.org/2000/svg"><path d="m94.49 0a16.6 16.6 0 0 0 -13.77 25.86l7.09-7.08a6.88 6.88 0 0 1 -.35-2.19 7 7 0 1 1 7 7 6.87 6.87 0 0 1 -2.18-.35l-7.08 7.08a16.59 16.59 0 1 0 9.29-30.32z" fill="#34a853"/><path d="m87.89 48.35a25.79 25.79 0 0 0 -5.17-15.54l-9.2 9.19a13.19 13.19 0 0 1 -2.52 15.92l5 12.22a25.93 25.93 0 0 0 11.89-21.79z" fill="#fbbc04"/><path d="m62.18 61.54h-.24a13.2 13.2 0 1 1 7.25-24.23l9.11-9.11a25.94 25.94 0 1 0 -16.36 46.09 26.53 26.53 0 0 0 5.24-.52z" fill="#ea4335"/><path d="m94.84 72.11a58.87 58.87 0 0 0 -17 2.49l7.29 17.81a40.19 40.19 0 0 1 9.7-1.18 39.71 39.71 0 1 1 -28.09 11.63 40.12 40.12 0 0 1 9.47-7l-7.21-17.76a58.87 58.87 0 1 0 25.89-6z" fill="#4285f4"/></svg>