<svg xmlns="http://www.w3.org/2000/svg" width="50" height="50" viewBox="0 0 255.387 263.272" preserveAspectRatio="xMinYMin meet"><path d="M254.71 157.722c-1.534-4.65-5.555-7.887-10.755-8.664-2.452-.366-5.26-.21-8.583.475-5.792 1.195-10.09 1.65-13.225 1.738 11.837-19.985 21.462-42.775 27.003-64.228 8.96-34.69 4.172-50.492-1.423-57.64C232.92 10.483 211.317.319 185.255.008c-13.903-.17-26.108 2.575-32.475 4.549-5.928-1.046-12.302-1.63-18.99-1.738-12.537-.2-23.614 2.533-33.08 8.15-5.24-1.772-13.65-4.27-23.361-5.864-22.842-3.75-41.252-.828-54.718 8.685C6.325 25.308-1.234 45.32.164 73.27c.444 8.874 5.408 35.874 13.224 61.48 4.492 14.718 9.282 26.94 14.237 36.33 7.027 13.315 14.546 21.156 22.987 23.972 4.73 1.576 13.327 2.68 22.368-4.85 1.146 1.388 2.675 2.767 4.704 4.048 2.577 1.625 5.728 2.953 8.875 3.74 11.34 2.835 21.964 2.126 31.027-1.848.056 1.612.099 3.152.135 4.482.06 2.157.12 4.272.199 6.25.537 13.374 1.447 23.773 4.143 31.049.148.4.347 1.01.557 1.657 1.345 4.118 3.594 11.012 9.316 16.41 5.925 5.594 13.092 7.309 19.656 7.309 3.292 0 6.433-.432 9.188-1.022 9.82-2.105 20.973-5.311 29.04-16.8 7.629-10.86 11.337-27.216 12.008-52.99.087-.728.167-1.424.244-2.087l.16-1.362 1.797.158.463.03c10.002.457 22.232-1.664 29.743-5.153 5.935-2.754 24.954-12.795 20.476-26.351"/><path d="M237.609 160.358c-29.74 6.135-31.785-3.934-31.785-3.934 31.4-46.593 44.527-105.736 33.2-120.211-30.904-39.485-84.4-20.811-85.292-20.327l-.287.052c-5.876-1.22-12.451-1.946-19.842-2.067-13.456-.22-23.664 3.528-31.41 9.402 0 0-95.43-39.314-90.991 49.444.944 18.882 27.064 142.873 58.218 105.422 11.387-13.695 22.39-25.274 22.39-25.274 5.464 3.63 12.006 5.482 18.864 4.817l.533-.452c-.166 1.7-.09 3.363.213 5.332-8.026 8.967-5.667 10.54-21.711 13.844-16.235 3.346-6.698 9.302-.471 10.86 7.549 1.887 25.013 4.56 36.813-11.958l-.47 1.885c3.144 2.519 5.352 16.383 4.982 28.952-.37 12.568-.617 21.197 1.86 27.937 2.479 6.74 4.948 21.905 26.04 17.386 17.623-3.777 26.756-13.564 28.027-29.89.9-11.606 2.942-9.89 3.07-20.267l1.637-4.912c1.887-15.733.3-20.81 11.157-18.448l2.64.232c7.99.363 18.45-1.286 24.589-4.14 13.218-6.133 21.058-16.376 8.024-13.685h.002" fill="#336791"/><path d="M107.779 81.16c-2.68-.372-5.107-.027-6.335.903-.69.523-.904 1.129-.962 1.546-.154 1.105.62 2.327 1.096 2.957 1.346 1.784 3.312 3.01 5.258 3.28.282.04.563.058.842.058 3.245 0 6.196-2.527 6.456-4.392.325-2.336-3.066-3.893-6.355-4.35m88.784.073c-.256-1.831-3.514-2.353-6.606-1.923-3.088.43-6.082 1.824-5.832 3.659.2 1.427 2.777 3.863 5.827 3.863.258 0 .518-.017.78-.054 2.036-.282 3.53-1.575 4.24-2.32 1.08-1.136 1.706-2.402 1.59-3.225" fill="#fff"/><path d="M247.505 159.66c-1.134-3.428-4.784-4.531-10.848-3.28-18.005 3.717-24.453 1.143-26.57-.416 13.995-21.32 25.508-47.092 31.719-71.137 2.942-11.39 4.567-21.968 4.7-30.59.147-9.463-1.465-16.417-4.79-20.665-13.401-17.125-33.071-26.311-56.881-26.563-16.37-.184-30.2 4.005-32.88 5.183-5.646-1.404-11.801-2.266-18.502-2.376-12.288-.2-22.91 2.743-31.704 8.74-3.82-1.422-13.692-4.811-25.765-6.756-20.872-3.36-37.458-.814-49.294 7.57C12.567 29.378 6.047 47.264 7.31 72.53c.425 8.502 5.269 34.654 12.913 59.699 10.062 32.964 21 51.625 32.508 55.464 1.347.449 2.9.763 4.613.763 4.198 0 9.345-1.892 14.7-8.33a529.832 529.832 0 0120.26-22.926c4.525 2.428 9.495 3.784 14.578 3.92.01.133.023.266.035.398a117.66 117.66 0 00-2.57 3.175c-3.522 4.47-4.255 5.402-15.592 7.736-3.225.666-11.79 2.43-11.916 8.435-.136 6.56 10.125 9.315 11.294 9.607 4.074 1.02 7.999 1.523 11.742 1.523 9.103 0 17.114-2.992 23.516-8.781-.197 23.386.778 46.43 3.586 53.45 2.3 5.749 7.918 19.796 25.664 19.795 2.604 0 5.47-.303 8.623-.98 18.52-3.97 26.564-12.155 29.675-30.202 1.665-9.645 4.522-32.676 5.866-45.03 2.836.885 6.487 1.29 10.434 1.289 8.232 0 17.73-1.75 23.688-4.514 6.692-3.108 18.768-10.734 16.578-17.36zm-44.106-83.48c-.061 3.648-.563 6.959-1.095 10.415-.573 3.717-1.165 7.56-1.314 12.225-.147 4.54.42 9.26.968 13.825 1.108 9.22 2.245 18.712-2.156 28.078a36.508 36.508 0 01-1.95-4.01c-.547-1.325-1.735-3.455-3.38-6.403-6.4-11.476-21.384-38.35-13.713-49.316 2.285-3.264 8.084-6.62 22.64-4.813zm-17.644-61.786c21.334.47 38.21 8.452 50.158 23.72 9.164 11.71-.927 64.998-30.14 110.969a171.33 171.33 0 00-.886-1.117l-.37-.462c7.549-12.467 6.073-24.802 4.759-35.738-.54-4.488-1.05-8.727-.92-12.71.134-4.22.692-7.84 1.232-11.34.663-4.312 1.338-8.775 1.152-14.036.139-.552.195-1.204.122-1.978-.475-5.045-6.235-20.144-17.975-33.81-6.422-7.475-15.787-15.84-28.574-21.482 5.5-1.14 13.02-2.203 21.442-2.016zM66.377 175.414c-5.9 7.094-9.974 5.734-11.314 5.288-8.73-2.912-18.86-21.364-27.791-50.624C19.544 104.76 15.028 79.3 14.67 72.162c-1.128-22.578 4.345-38.313 16.268-46.77 19.404-13.76 51.306-5.523 64.125-1.346-.184.182-.376.352-.558.537-21.036 21.244-20.537 57.54-20.485 59.759-.002.856.07 2.068.168 3.735.362 6.105 1.036 17.467-.764 30.334-1.672 11.957 2.014 23.66 10.11 32.109a36.275 36.275 0 002.618 2.468c-3.604 3.86-11.437 12.396-19.775 22.426zm22.479-29.993c-6.526-6.81-9.49-16.282-8.133-25.99 1.9-13.592 1.199-25.43.822-31.79-.053-.89-.1-1.67-.127-2.285C84.49 82.63 98.732 75 108.888 77.328c4.634 1.06 7.458 4.217 8.632 9.645 6.076 28.103.804 39.816-3.432 49.229-.873 1.939-1.698 3.772-2.402 5.668l-.546 1.466c-1.382 3.706-2.668 7.152-3.465 10.424-6.938-.02-13.687-2.984-18.82-8.34zm1.065 37.9c-2.026-.506-3.848-1.385-4.917-2.114.893-.42 2.482-.992 5.238-1.56 13.337-2.745 15.397-4.683 19.895-10.394 1.03-1.31 2.2-2.794 3.819-4.602l.002-.002c2.41-2.7 3.514-2.242 5.514-1.412 1.62.67 3.2 2.702 3.84 4.938.303 1.056.643 3.06-.47 4.62-9.396 13.156-23.088 12.987-32.921 10.526zm69.799 64.952c-16.316 3.496-22.093-4.83-25.9-14.346-2.457-6.144-3.665-33.85-2.808-64.447.01-.407-.047-.8-.16-1.17a15.444 15.444 0 00-.455-2.162c-1.274-4.452-4.38-8.176-8.104-9.72-1.48-.613-4.196-1.738-7.46-.903.696-2.868 1.903-6.107 3.212-9.614l.549-1.475c.618-1.663 1.394-3.386 2.214-5.21 4.433-9.848 10.504-23.337 3.915-53.81-2.468-11.414-10.71-16.988-23.204-15.693-7.49.775-14.343 3.797-17.761 5.53-.735.372-1.407.732-2.035 1.082.954-11.5 4.558-32.992 18.04-46.59 8.489-8.56 19.794-12.788 33.568-12.56 27.14.444 44.544 14.372 54.366 25.979 8.464 10 13.047 20.076 14.876 25.51-13.755-1.4-23.11 1.316-27.852 8.096-10.317 14.748 5.644 43.372 13.315 57.129 1.407 2.52 2.62 4.7 3.003 5.626 2.498 6.054 5.732 10.096 8.093 13.046.724.904 1.426 1.78 1.96 2.547-4.166 1.2-11.65 3.976-10.967 17.847-.55 6.96-4.461 39.546-6.448 51.059-2.623 15.21-8.22 20.875-23.957 24.25zm68.104-77.936c-4.26 1.977-11.39 3.46-18.161 3.779-7.48.35-11.288-.838-12.184-1.57-.42-8.643 2.797-9.546 6.202-10.502.535-.15 1.057-.297 1.56-.473.314.255.657.508 1.033.756 6.012 3.968 16.735 4.396 31.874 1.27l.166-.032c-2.042 1.909-5.536 4.47-10.49 6.772z" fill="#fff"/></svg>