<svg xmlns="http://www.w3.org/2000/svg" viewBox="5.591 3.262 137.882 137.803" height="50" width="50"><linearGradient gradientTransform="matrix(.5625 0 0 -.568 1159.233 166.282)" y2="182.075" x2="-1922.296" y1="275.868" x1="-2031.312" gradientUnits="userSpaceOnUse" id="p_blue"><stop stop-color="#5a9fd4" offset="0"/><stop stop-color="#306998" offset="1"/></linearGradient><path fill="url(#p_blue)" d="M74.184 6.398c-4.584.021-8.96.412-12.812 1.094-11.346 2.005-13.406 6.2-13.406 13.938v10.219h26.812v3.406H37.903c-7.792 0-14.616 4.684-16.75 13.594-2.462 10.213-2.57 16.586 0 27.25 1.906 7.938 6.458 13.594 14.25 13.594h9.22v-12.25c0-8.85 7.656-16.656 16.75-16.656h26.78c7.455 0 13.406-6.138 13.406-13.625V21.429c0-7.266-6.13-12.725-13.406-13.938-4.607-.766-9.385-1.115-13.969-1.093zm-14.5 8.218c2.77 0 5.031 2.299 5.031 5.125 0 2.816-2.262 5.094-5.03 5.094-2.78 0-5.032-2.277-5.032-5.094 0-2.826 2.252-5.125 5.031-5.125z"/><linearGradient gradientTransform="matrix(.5625 0 0 -.568 1159.233 166.282)" y2="180.384" x2="-1919.08" y1="125.305" x1="-1880.151" gradientUnits="userSpaceOnUse" id="b"><stop stop-color="#ffd43b" offset="0"/><stop stop-color="#ffe873" offset="1"/></linearGradient><path fill="url(#b)" d="M104.903 35.054V46.96c0 9.231-7.826 17-16.75 17h-26.78c-7.337 0-13.407 6.278-13.407 13.625v25.531c0 7.267 6.318 11.541 13.406 13.625 8.487 2.496 16.626 2.947 26.781 0 6.75-1.954 13.406-5.888 13.406-13.625V92.898H74.78v-3.406h40.186c7.793 0 10.696-5.436 13.406-13.594 2.8-8.398 2.681-16.476 0-27.25-1.926-7.757-5.604-13.594-13.406-13.594h-10.062zM89.84 99.71c2.78 0 5.031 2.277 5.031 5.094 0 2.826-2.252 5.125-5.03 5.125-2.77 0-5.032-2.299-5.032-5.125 0-2.816 2.262-5.094 5.031-5.094z"/><radialGradient gradientUnits="userSpaceOnUse" gradientTransform="matrix(0 -.2399 -1.0547 0 472.471 -680.1)" r="29.037" cy="376.791" cx="-3393.238" id="c"><stop stop-opacity=".498" stop-color="#b8b8b8" offset="0"/><stop stop-opacity="0" stop-color="#7f7f7f" offset="1"/></radialGradient><path fill="url(#c)" opacity=".444" d="M111.013 134.098c0 3.848-16.087 6.967-35.932 6.967-19.844 0-35.93-3.119-35.93-6.967 0-3.848 16.086-6.968 35.93-6.968 19.845 0 35.932 3.12 35.932 6.968z"/></svg>