<svg height="181.51067" viewBox="0 0 181.51067 181.51067" width="181.51067" xmlns="http://www.w3.org/2000/svg"><path d="m136.5 87.942478c0 28.700002-23.2 51.900002-51.9 51.900002s-51.9-23.3-51.9-51.900002c0-28.7 23.2-51.9 51.9-51.9 28.6-.1 51.9 23.2 51.9 51.9m43.2 64.900002-23.7-19.8c8.2-13 13-28.5 13-45.100002 0-46.7-37.8-84.5000002-84.5-84.5000002s-84.5 37.8000002-84.5 84.5000002c0 46.700002 37.8 84.500002 84.5 84.500002 18.1 0 34.9-5.7 48.6-15.4l25.2 21.2s3.8 3.1 6.9-.6l15-17.9c.1 0 3.2-3.8-.5-6.9" fill="#009c4d"/><path d="m51.2 84.5c0-18.4 14.9-33.3 33.3-33.3s33.3 14.9 33.3 33.3-14.9 33.3-33.3 33.3c-18.3-.1-33.3-15-33.3-33.3" fill="#54565b"/></svg>