<svg height="50" viewBox="0 0 75.459998 75.459997" width="50" xmlns="http://www.w3.org/2000/svg"><path d="m56.07 18c-6.47 0-12.43 3.64-18.19 10-5.66-6.46-11.72-10-18.49-10-11.21 0-19.39 8-19.39 18.77s8.18 18.67 19.39 18.67c6.89 0 12.23-3.23 18.19-9.67 5.76 6.46 11.62 9.69 18.49 9.69 11.21-.02 19.39-7.89 19.39-18.69s-8.18-18.77-19.39-18.77zm-36.6 26.14c-4.75 0-7.58-3.13-7.58-7.27s2.83-7.36 7.58-7.36c4 0 7.27 3.22 10.81 7.56-3.34 4.04-6.87 7.07-10.81 7.07zm36.26 0c-3.94 0-7.27-3.13-10.81-7.27 3.64-4.34 6.77-7.36 10.81-7.36 4.75 0 7.55 3.26 7.55 7.36s-2.8 7.27-7.55 7.27z" fill="#484848"/><g fill="#00d1c1"><path d="m46.02 52.77 7.54-9c-3-.9-5.77-3.6-8.64-6.95l-7.34 8.95a33 33 0 0 0 8.44 7z"/><path d="m37.88 27.99a33.93 33.93 0 0 0 -8.39-7.16l-7.55 9.1c2.87 1 5.41 3.58 8.11 6.87l.3.21z"/></g></svg>