<svg xmlns="http://www.w3.org/2000/svg" viewBox="0 0 37.51 37.51">
  <g id="Layer_2" data-name="Layer 2">
    <g id="bg">
      <g>
        <circle cx="18.75" cy="18.75" r="18.75" style="fill: #fff"/>
        <g>
          <path d="M12.9,10.49a2.28,2.28,0,0,1-2.47,2.29,2.29,2.29,0,1,1,.06-4.57A2.26,2.26,0,0,1,12.9,10.49ZM8.18,29.3V14.59h4.57V29.3Z" style="fill: #272726"/>
          <path d="M15.49,19.28c0-1.84-.06-3.37-.12-4.69h4l.21,2h.09a5.29,5.29,0,0,1,4.54-2.38c3,0,5.27,2,5.27,6.35v8.7H24.88V21.14c0-1.89-.67-3.18-2.32-3.18a2.51,2.51,0,0,0-2.35,1.71,3.28,3.28,0,0,0-.15,1.14V29.3H15.49Z" style="fill: #272726"/>
        </g>
      </g>
    </g>
  </g>
</svg>
