<svg xmlns="http://www.w3.org/2000/svg" viewBox="0 0 47.32 61.49">
  <g id="Layer_2" data-name="Layer 2">
    <g id="content">
      <g>
        <polyline points="32.17 14.17 28.98 10.46 30.25 2.47 40.1 1.24" style="fill: #fff;stroke: #272726;stroke-miterlimit: 10;stroke-width: 2.5px"/>
        <polyline points="32.15 14.15 35.35 17.86 44.42 17.5 46.09 8.54" style="fill: #fff;stroke: #272726;stroke-miterlimit: 10;stroke-width: 2.5px"/>
        <rect x="12.54" y="14.86" width="10.58" height="23.02" transform="translate(26.22 -4.34) rotate(49.34)" style="fill: #fff;stroke: #272726;stroke-miterlimit: 10;stroke-width: 2.5px"/>
        <rect x="12.89" y="33.22" width="10.58" height="23.02" transform="translate(-12.6 7.53) rotate(-17.48)" style="fill: #fff;stroke: #272726;stroke-miterlimit: 10;stroke-width: 2.5px"/>
        <path d="M9.22,52.27H32.44a8,8,0,0,1,8,8v0a0,0,0,0,1,0,0H1.25a0,0,0,0,1,0,0v0A8,8,0,0,1,9.22,52.27Z" style="fill: #fff;stroke: #272726;stroke-miterlimit: 10;stroke-width: 2.5px"/>
        <circle cx="13.02" cy="30.44" r="8.33" style="fill: #fff;stroke: #272726;stroke-miterlimit: 10;stroke-width: 2.5px"/>
        <circle cx="13.02" cy="30.44" r="3.17" style="fill: #fff;stroke: #272726;stroke-miterlimit: 10;stroke-width: 2.5px"/>
        <rect x="22.5" y="12.82" width="13.67" height="7.32" transform="translate(22.73 -16.51) rotate(49.34)" style="fill: #fff;stroke: #272726;stroke-miterlimit: 10;stroke-width: 2.5px"/>
      </g>
    </g>
  </g>
</svg>
