<svg xmlns="http://www.w3.org/2000/svg" viewBox="0 0 200 51.85">
  <g id="Layer_2" data-name="Layer 2">
    <g id="content">
      <g>
        <path d="M23,0,16.36,3.91l9.31,5.48L10.2,18.49V22.6l6,3.46v-3.7l16.1-9.43,6.57,3.95-.08,14.63,6.16-3.71.12-14.74ZM45,39.57l0-7.67-9.47,5.18.1-17.95L32.16,17l-6,3.37,3.17,1.9-.15,18.65-6.76,3.61L9.88,37l0,7.19,12.6,7.67ZM0,38.78l6.69,3.76.08-10.81L22.4,40.57l3.56-2V31.6l-3.21,1.86L6.54,24.24l.13-7.66,12.7-7.25L13.08,5.85.25,13.12Z" style="fill: #fff;fill-rule: evenodd"/>
        <g>
          <path d="M75,19.45V36.82H70.24V19.45H63.6V15H81.67v4.43Z" style="fill: #000"/>
          <path d="M85.49,36.82V15H101.9v4.27H90.22v4.42H100.5V28H90.22v4.58h11.84v4.26Z" style="fill: #fff"/>
          <path d="M116.37,19.45V36.82h-4.79V19.45h-6.64V15H123v4.43Z" style="fill: #fff"/>
          <path d="M143.9,36.82V22.59l-6.14,9.31h-.12l-6.08-9.22V36.82h-4.73V15H132l5.73,9.22L143.46,15h5.17v21.8Z" style="fill: #fff"/>
          <path d="M175.34,30.3a11.13,11.13,0,0,1-6.09,6,12.57,12.57,0,0,1-9.29,0,11.4,11.4,0,0,1-3.66-2.4,10.61,10.61,0,0,1-2.4-3.55A11.2,11.2,0,0,1,153,26v-.07a11,11,0,0,1,.87-4.37A11.32,11.32,0,0,1,156.33,18,11.2,11.2,0,0,1,160,15.54a11.91,11.91,0,0,1,4.66-.89,11.77,11.77,0,0,1,8.3,3.28,10.76,10.76,0,0,1,2.4,3.56,11.17,11.17,0,0,1,.86,4.37v.06A11.05,11.05,0,0,1,175.34,30.3Zm-4.14-4.38a7.27,7.27,0,0,0-.48-2.64,6.56,6.56,0,0,0-1.37-2.18,6.44,6.44,0,0,0-2.11-1.48,6.24,6.24,0,0,0-2.64-.55,6.59,6.59,0,0,0-2.67.53,6.14,6.14,0,0,0-2.05,1.46,7,7,0,0,0-1.34,2.17,7.18,7.18,0,0,0-.48,2.63v.06a7.29,7.29,0,0,0,.48,2.65A6.57,6.57,0,0,0,162,32.23a6.39,6.39,0,0,0,2.66.55,6.64,6.64,0,0,0,2.65-.53,6,6,0,0,0,2.07-1.47,6.83,6.83,0,0,0,1.34-2.16A7.18,7.18,0,0,0,171.2,26Z" style="fill: #fff"/>
          <path d="M195.92,36.82,185.36,23V36.82h-4.73V15h4.42l10.22,13.43V15H200v21.8Z" style="fill: #fff"/>
        </g>
      </g>
    </g>
  </g>
</svg>
