<svg fill="#215F74" viewBox="0 0 700 700" xmlns="http://www.w3.org/2000/svg"><path d="m287.35 39.109c-1.7383.30469-3.2266 1.4062-4.0273 2.9766-1.7344 3.4688-3.5625 8.8945-6.4766 15.578-2.9141 6.6836-6.7109 14.375-11.375 21.703-9.3281 14.66-21.742 26.957-38.676 26.957h-61.602.003907c-3.0938 0-5.5977 2.5078-5.5977 5.5977v168.03c0 71.684 33.203 126.33 73.148 165.58s86.578 63.309 115.15 74.738v.003906c1.3477.54297 2.8555.54297 4.2031 0 28.57-11.43 75.203-35.488 115.15-74.738 39.945-39.254 73.148-93.902 73.148-165.59v-168.03c0-3.0938-2.5039-5.6016-5.5977-5.6016h-61.602c-16.934 0-29.348-12.293-38.676-26.957-4.6641-7.332-8.4609-15.023-11.375-21.703-2.9141-6.6836-4.7422-12.109-6.4766-15.578h.003906c-.99219-1.8711-2.957-3.0234-5.0742-2.9727h-123.2c-.34766-.035156-.69922-.035156-1.0469 0zm4.7266 11.203h115.85c1.2227 2.832 2.6836 6.2383 5.0742 11.727 3.0391 6.9688 6.9375 15.383 12.074 23.453 10.273 16.145 25.859 32.031 48.125 32.031h56v162.43c0 68.246-31.195 119.92-69.648 157.7-37.676 37.02-81.961 59.984-109.55 71.238-27.59-11.254-71.875-34.219-109.55-71.238-38.457-37.785-69.652-89.457-69.652-157.7v-162.43h56c22.266 0 37.852-15.887 48.125-32.031 5.1367-8.0703 9.0391-16.484 12.074-23.453 2.3906-5.4883 3.8555-8.8945 5.0742-11.727zm57.922 151.23c-27.77 0-50.398 22.637-50.398 50.41 0 14.68 6.9062 26.617 16.801 35.531v48.484c0 12.316 10.086 22.406 22.398 22.406h22.398c12.312 0 22.398-10.09 22.398-22.406v-48.484c9.8945-8.9141 16.801-20.852 16.801-35.531 0-27.773-22.633-50.41-50.398-50.41zm0 11.203c21.715 0 39.199 17.488 39.199 39.207 0 12.418-5.4961 21.848-14.699 29.23-1.3281 1.0625-2.1016 2.6719-2.1016 4.375v50.41c0 6.3047-4.8984 11.203-11.199 11.203h-22.398c-6.3008 0-11.199-4.8984-11.199-11.203v-50.41c0-1.7031-.77344-3.3125-2.1016-4.375-9.2031-7.3828-14.699-16.812-14.699-29.23 0-21.719 17.484-39.207 39.199-39.207z"/></svg>