<svg fill="#215F74"  viewBox="0 0 700 700"  xmlns="http://www.w3.org/2000/svg"><path d="m327.6 160.26v-25.859h5.0898c11.086 0 20.109-10.047 20.109-22.398v-22.398c0-12.352-9.0234-22.398-20.109-22.398l-77.383-.003906c-11.086 0-20.109 10.051-20.109 22.402v22.398c0 12.352 9.0234 22.398 20.109 22.398h5.0898v25.855c-78.148 15.773-134.4 84.203-134.4 164.55 0 92.637 75.363 168 168 168s168-75.363 168-168c0-80.352-56.262-148.79-134.4-164.54zm-72.293-37.059c-4.9102 0-8.9102-5.0234-8.9102-11.199v-22.398c0-6.1758 3.9961-11.199 8.9102-11.199h77.383c4.9102-.003906 8.9102 5.0195 8.9102 11.199v22.398c0 6.1758-3.9961 11.199-8.9102 11.199zm61.09 11.199v23.91c-1.8008-.24609-3.6328-.36719-5.4453-.55469-1.1992-.12109-2.3828-.26953-3.5859-.36328-4.4375-.35156-8.8945-.58984-13.367-.58984-4.4688 0-8.918.23438-13.352.59375-1.2227.097657-2.4258.24609-3.6406.37109-1.8047.18359-3.6211.30469-5.4062.54688v-23.914zm-22.398 347.2c-86.461 0-156.8-70.34-156.8-156.8 0-76.469 54.566-141.41 129.79-154.43 16.48-2.9492 33.949-3.0273 50.559-.46094 1.1602.17969 2.3477.25781 3.5.46484 75.191 13.012 129.76 77.953 129.76 154.42 0 86.461-70.34 156.8-156.8 156.8z"/><path d="m294 190.4c-74.105 0-134.4 60.293-134.4 134.4s60.293 134.4 134.4 134.4 134.4-60.293 134.4-134.4-60.293-134.4-134.4-134.4zm0 257.6c-67.934 0-123.2-55.266-123.2-123.2s55.266-123.2 123.2-123.2 123.2 55.266 123.2 123.2-55.266 123.2-123.2 123.2z"/><path d="m362.34 262.89-62.734 75.285v-119.78c0-3.0938-2.5039-5.6016-5.6016-5.6016-3.0938 0-5.6016 2.5078-5.6016 5.6016v135.25c0 2.3555 1.4766 4.4609 3.6914 5.2656.625.22656 1.2695.33594 1.9102.33594 1.6289 0 3.2148-.71484 4.3047-2.0156l72.641-87.168c1.9805-2.375 1.6562-5.9062-.71484-7.8867-2.3906-1.9766-5.9062-1.6562-7.8945.71875z"/><path d="m378 134.4h190.4c3.0938 0 5.6016-2.5078 5.6016-5.6016s-2.5039-5.6016-5.6016-5.6016l-190.4.003907c-3.0938 0-5.6016 2.5078-5.6016 5.6016s2.5078 5.5977 5.6016 5.5977z"/><path d="m434 156.8c-3.0938 0-5.6016 2.5078-5.6016 5.6016s2.5039 5.6016 5.6016 5.6016h56c3.0938 0 5.6016-2.5078 5.6016-5.6016s-2.5039-5.6016-5.6016-5.6016z"/><path d="m568.4 212.8h-134.4c-3.0938 0-5.6016 2.5078-5.6016 5.6016s2.5039 5.6016 5.6016 5.6016h134.4c3.0938 0 5.6016-2.5078 5.6016-5.6016s-2.5039-5.6016-5.6016-5.6016z"/><path d="m523.6 274.4c0-3.0938-2.5039-5.6016-5.6016-5.6016l-56 .003906c-3.0938 0-5.6016 2.5078-5.6016 5.6016s2.5039 5.6016 5.6016 5.6016h56c3.0938-.003906 5.6016-2.5117 5.6016-5.6055z"/><path d="m568.4 324.8h-95.199c-3.0938 0-5.6016 2.5078-5.6016 5.6016s2.5039 5.6016 5.6016 5.6016h95.199c3.0938 0 5.6016-2.5078 5.6016-5.6016s-2.5039-5.6016-5.6016-5.6016z"/></svg>