<svg fill="#215F74" viewBox="0 0 700 700" xmlns="http://www.w3.org/2000/svg"><path d="m588.07 338.87c8.1562 0 17.785-1.6016 25.852-7.4141 10.18-7.3359 15.59-19.641 16.078-36.57.066406-2.3789-1.8047-4.3633-4.1875-4.4297-2.2891-.15625-4.3633 1.8047-4.4297 4.1797-.40234 14.09-4.5977 24.121-12.469 29.809-11.004 7.9492-26.668 5.832-33.145 4.4883-1.6055-68.051-51.098-128.61-130.33-159.5 6.9883-14.809 10.699-31.164 10.699-47.648 0-61.898-50.359-112.26-112.26-112.26-61.902 0-112.26 50.359-112.26 112.26 0 15.07 2.957 29.605 8.7344 43.285-15.43 5.1914-30.168 11.586-43.832 19.18l-60.797-47.676c-1.3984-1.0898-3.3164-1.2188-4.8438-.32031-1.5273.89844-2.3516 2.6406-2.0703 4.3906l13.109 82.301c-17.133 15.605-28.586 40.738-35.449 60.379h-23.848c-6.957 0-12.621 5.6641-12.621 12.621v72.844c0 6.9844 5.6641 12.664 12.621 12.664h23.863c7.2031 19.914 18.754 38.672 34.379 55.801 15.465 16.961 34.441 31.66 56.43 43.73v59.379c0 5.582 4.5391 10.125 10.121 10.125h50.016c5.582 0 10.121-4.543 10.121-10.125v-33.078c45.316 10.52 93.273 10.516 138.49.003906v33.078c0 5.582 4.5391 10.125 10.121 10.125h50.055c5.582 0 10.125-4.543 10.125-10.125v-59.383c29.801-16.41 54.523-38.016 71.594-62.602 17.172-24.668 26.617-52.449 27.695-80.664 3.1875.58203 7.543 1.1562 12.438 1.1562zm-347.83-217.09c0-57.148 46.496-103.64 103.64-103.64 57.148 0 103.64 46.496 103.64 103.64 0 16.703-4.0898 33.289-11.824 47.969-18.008 34.34-53.195 55.676-91.816 55.676-39.906 0-76.727-23.414-93.805-59.652-6.5312-13.785-9.8398-28.59-9.8398-43.992zm300.63 291.68c-16.738 24.102-41.242 45.254-70.871 61.164-1.3984.75-2.2656 2.207-2.2656 3.793v61.945c0 .80469-.70703 1.5078-1.5117 1.5078h-50.055c-.80469 0-1.5078-.70312-1.5078-1.5078v-38.551c0-1.3281-.61328-2.582-1.6602-3.3984-1.043-.81641-2.4023-1.1094-3.6992-.78125-47.203 11.887-97.691 11.891-145.01 0-1.3008-.32031-2.6562-.035156-3.7031.78125-1.0469.81641-1.6562 2.0703-1.6562 3.3984v38.551c0 .83203-.67578 1.5078-1.5078 1.5078h-50.012c-.82812 0-1.5078-.67578-1.5078-1.5078v-61.945c0-1.5898-.875-3.0469-2.2773-3.7969-22.09-11.832-41.066-26.355-56.398-43.172-15.582-17.078-26.891-35.812-33.609-55.684-.59375-1.75-2.2344-2.9297-4.082-2.9297h-26.922c-2.207 0-4.0039-1.8164-4.0039-4.0508l.003906-72.84c0-2.207 1.7969-4.0078 4.0039-4.0078h26.922c1.8516 0 3.4922-1.1797 4.0859-2.9336 5.4102-16.086 17.242-45.414 35.707-61.113 1.1484-.97266 1.6992-2.4727 1.4648-3.957l-11.754-73.805 54.426 42.68c1.3789 1.082 3.2812 1.2188 4.7969.34766 14.172-8.0977 29.586-14.863 45.801-20.25 19.168 37.242 57.887 61.137 99.816 61.137 40.551 0 77.543-21.746 97.539-56.934 77.695 29.988 125.81 89.191 125.81 155.23 0 28.285-9.1172 56.332-26.367 81.117z"/><path d="m174.75 252.81c-12.578 0-22.812 10.234-22.812 22.809 0 12.578 10.234 22.812 22.812 22.812s22.809-10.234 22.809-22.812c0-12.574-10.23-22.809-22.809-22.809zm0 37.004c-7.8281 0-14.199-6.3672-14.199-14.195 0-7.8281 6.3672-14.195 14.199-14.195 7.8242 0 14.195 6.3672 14.195 14.195 0 7.8281-6.3711 14.195-14.195 14.195z"/><path d="m343.88 209.01c48.121 0 87.273-39.133 87.273-87.23 0-48.121-39.152-87.273-87.273-87.273-48.125 0-87.277 39.148-87.277 87.273 0 48.102 39.152 87.23 87.277 87.23zm0-165.89c43.371 0 78.656 35.285 78.656 78.656 0 43.348-35.285 78.617-78.656 78.617-43.375 0-78.66-35.266-78.66-78.617 0-43.371 35.285-78.656 78.66-78.656z"/><path d="m321.83 144.14c0-2.3789-1.9258-4.3086-4.3086-4.3086s-4.3086 1.9297-4.3086 4.3086c0 13.449 11.488 24.582 26.363 26.414v3.8242c0 2.3789 1.9258 4.3086 4.3086 4.3086s4.3086-1.9297 4.3086-4.3086v-3.8281c14.848-1.8359 26.316-12.965 26.316-26.414 0-13.426-11.469-24.535-26.316-26.367v-36.078c10.078 1.6484 17.703 8.9492 17.703 17.691 0 2.3789 1.9258 4.3086 4.3086 4.3086s4.3086-1.9297 4.3086-4.3086c0-13.426-11.469-24.535-26.316-26.367v-3.8281c0-2.3789-1.9258-4.3086-4.3086-4.3086s-4.3086 1.9297-4.3086 4.3086v3.8281c-14.875 1.8281-26.363 12.941-26.363 26.371 0 13.449 11.488 24.578 26.363 26.41v36.078c-10.109-1.6484-17.75-8.9688-17.75-17.734zm26.363-17.703c10.078 1.6484 17.703 8.957 17.703 17.703 0 8.7656-7.6211 16.094-17.703 17.746zm-26.363-27.055c0-8.7461 7.6445-16.047 17.75-17.691v35.426c-10.109-1.6484-17.75-8.9688-17.75-17.734z"/></svg>