<svg fill="#215f74" viewBox="0 0 700 700" xmlns="http://www.w3.org/2000/svg"><path d="m298.71 192.19c22.254-22.266 22.254-58.477 0-80.746l-8.5391 8.5391c17.543 17.555 17.543 46.109 0 63.66z"/><path d="m226.49 183.65c-8.5078-8.5-13.188-19.801-13.188-31.832 0-12.027 4.6797-23.336 13.188-31.836l-8.5391-8.5391c-10.781 10.781-16.727 25.121-16.727 40.375s5.9453 29.59 16.727 40.371z"/><path d="m258.3 232.47c44.469 0 80.652-36.18 80.652-80.645s-36.18-80.641-80.652-80.641c-44.453 0-80.625 36.176-80.625 80.641.003906 44.465 36.172 80.645 80.625 80.645zm0-149.21c37.812 0 68.57 30.754 68.57 68.562 0 37.812-30.762 68.566-68.57 68.566-37.801 0-68.543-30.754-68.543-68.566 0-37.809 30.742-68.562 68.543-68.562z"/><path d="m255.99 157.02c12.504 4.4414 17.977 7.3008 17.977 16.062 0 8.3789-6.8828 15.199-15.355 15.199-8.4727 0-15.359-6.8203-15.359-15.199h-12.086c0 12.98 9.1797 23.832 21.426 26.566v4.1094h12.078v-4.1211c12.219-2.7617 21.371-13.59 21.371-26.555 0-18.199-15.043-23.547-26.012-27.445-12.344-4.3789-17.367-6.9648-17.367-15.059 0-8.3906 6.8984-15.211 15.371-15.211 8.4492 0 15.32 6.8203 15.32 15.211h12.078c0-12.758-8.8711-23.418-20.77-26.387v-4.5742h-12.078v4.2227c-12.527 2.5195-22.004 13.547-22.004 26.738.007813 17.422 14.688 22.629 25.41 26.441z"/><path d="m557.64 255.26c-6.2734-33.852-30.703-62.125-63.125-73.395l33.621-48.5-5.6562-3.2852c-.62891-.35156-62.926-35.363-112.5 33.371-14.785-7.3359-30.555-12.668-46.969-15.883l-2.3125 11.855c17.012 3.332 33.293 9.1016 48.383 17.148l4.8203 2.5703 3.0312-4.543c35.629-53.16 77.969-43.043 93.469-36.863l-35.547 51.289 8.4961 2.1172c33.414 8.293 58.789 36.797 63.125 70.926l.67188 5.2734h31.539v71.566h-33.047l-1.3789 4.1172c-11.641 34.828-38.219 55.82-78.949 62.383-.83594.11719-1.8242.33203-2.957.58203l-3.6445.78906-18.77 73.355h-45.148l-13.254-37.664-5.4805 1.5898c-25.117 7.3242-51.082 9.1055-77.375 5.168l-3.793-.57031-21.117 31.473h-45.465l-6.7461-62.641-2.0508-1.5781c-36.547-28.145-57.512-69.059-57.512-112.24 0-26.375 10.395-57.953 27.133-82.41l-9.957-6.8203c-17.07 24.926-27.887 56.812-29.035 84.465-5.4609-.4375-15.359-2.0781-20.266-8.4961-3.5898-4.6992-3.9648-11.652-1.1328-20.676l-11.543-3.6133c-4.0703 12.98-3.0312 23.621 3.0781 31.617 8.1641 10.68 22.938 12.863 30.07 13.293 2.207 43.395 23.508 84.086 59.742 112.84l7.3594 68.324h62.766l20.48-30.504c24.852 3.2305 49.336 1.6641 73.207-4.5312l12.324 35.035h63.086l19.23-75.098c42.578-7.2188 72.105-30.023 85.719-66.125h36.52l-.003906-95.711z"/><path d="m482.86 282.62c-5.543 0-10.051-4.5312-10.051-10.086h-12.078c0 12.227 9.9297 22.164 22.133 22.164 12.219 0 22.152-9.9414 22.152-22.164 0-3.1016-.62891-6.0859-1.8633-8.8828l-11.043 4.8828c.54297 1.25.82422 2.5859.82422 4-.007813 5.5586-4.5195 10.086-10.074 10.086z"/></svg>