<svg fill="#215F74" viewBox="0 0 700 700" xmlns="http://www.w3.org/2000/svg"><path d="m446.5 149.51c-25.496 0-46.234 20.742-46.234 46.234s20.738 46.234 46.234 46.234 46.234-20.742 46.234-46.234c-.003906-25.496-20.742-46.234-46.234-46.234zm0 81.266c-19.316 0-35.031-15.715-35.031-35.031 0-19.32 15.719-35.031 35.031-35.031 19.316 0 35.031 15.715 35.031 35.031s-15.719 35.031-35.031 35.031z"/><path d="m572.47 191.89c-5.5781-5.9102-11.398-11.41-17.266-16.34-6.5078-5.5078-13.348-10.559-20.312-15-27.539-17.703-57.281-26.676-88.391-26.676s-60.848 8.9727-88.367 26.664c-6.9727 4.4453-13.812 9.4961-20.312 14.996-5.8906 4.9453-11.707 10.449-17.285 16.355-2.0391 2.1562-2.0391 5.5312 0 7.6914 5.582 5.9102 11.402 11.41 17.266 16.336 6.375 5.3984 13.07 10.348 19.895 14.73.13672.10938.27734.21094.42578.30469 27.551 17.68 57.293 26.645 88.383 26.645s60.828-8.9648 88.387-26.641c.14844-.09375.28906-.19531.42188-.30078 6.8359-4.3867 13.531-9.3438 19.875-14.719 5.8828-4.9414 11.703-10.441 17.285-16.352 2.0352-2.1641 2.0352-5.5352-.003906-7.6953zm-24.504 15.48c-6.1211 5.1836-12.547 9.9336-19.113 14.117-.14844.09375-.29687.19922-.43359.30859-25.605 16.324-53.16 24.598-81.914 24.598s-56.305-8.2734-81.906-24.594c-.14062-.10938-.28516-.21484-.4375-.3125-6.5586-4.1797-12.992-8.9297-19.141-14.133-4.2617-3.5781-8.4883-7.4766-12.617-11.621 4.125-4.1484 8.3555-8.043 12.633-11.633 6.1367-5.1914 12.566-9.9375 19.141-14.129 25.699-16.52 53.398-24.898 82.328-24.898s56.629 8.3789 82.348 24.91c6.5625 4.1797 12.992 8.9297 19.137 14.133 4.2617 3.5781 8.4922 7.4766 12.617 11.621-4.1328 4.1445-8.3633 8.043-12.641 11.633z"/><path d="m349.7 154.38c4.6328-3.2422 9.4102-6.2656 14.23-8.9922 25.758-14.719 53.543-22.184 82.578-22.184s56.82 7.4648 82.602 22.195c4.8008 2.7188 9.582 5.7422 14.207 8.9805.97266.68359 2.0938 1.0117 3.2031 1.0117 1.7656 0 3.5039-.83203 4.5938-2.3867 1.7734-2.5352 1.1602-6.0273-1.3789-7.8008-4.9102-3.4414-9.9961-6.6523-15.09-9.5391-27.48-15.699-57.129-23.66-88.137-23.66s-60.66 7.9609-88.113 23.648c-5.1094 2.8906-10.195 6.1016-15.117 9.5469-2.5391 1.7734-3.1484 5.2656-1.3789 7.8008 1.7734 2.5352 5.2773 3.1484 7.8008 1.3789z"/><path d="m154 431.2h44.801c3.0938 0 5.6016-2.5078 5.6016-5.6016v-142.3c0-3.0938-2.5039-5.6016-5.6016-5.6016h-44.801c-3.0938 0-5.6016 2.5078-5.6016 5.6016l.003906 142.31c0 3.0898 2.5039 5.5977 5.5977 5.5977zm5.6016-142.3h33.602l-.003906 131.11h-33.602z"/><path d="m226.8 425.6c0 3.0938 2.5039 5.6016 5.6016 5.6016h44.801c3.0938 0 5.6016-2.5078 5.6016-5.6016l-.003907-179.2c0-3.0938-2.5039-5.6016-5.6016-5.6016h-44.801c-3.0938 0-5.6016 2.5078-5.6016 5.6016zm11.199-173.6h33.602v168h-33.602z"/><path d="m299.6 280v145.6c0 3.0938 2.5039 5.6016 5.6016 5.6016h44.801c3.0938 0 5.6016-2.5078 5.6016-5.6016l-.003907-145.6c0-3.0938-2.5039-5.6016-5.6016-5.6016h-44.801c-3.0938 0-5.5977 2.5078-5.5977 5.6016zm11.199 5.6016h33.602v134.4h-33.602z"/><path d="m400.4 448h-268.8c-3.0938 0-5.6016 2.5078-5.6016 5.6016s2.5039 5.6016 5.6016 5.6016h268.8c3.0938 0 5.6016-2.5078 5.6016-5.6016-.003906-3.0938-2.5078-5.6016-5.6016-5.6016z"/><path d="m434 319.2c3.0938 0 5.6016-2.5078 5.6016-5.6016s-2.5039-5.6016-5.6016-5.6016h-5.6016v-5.6016c0-3.0938-2.5039-5.6016-5.6016-5.6016-3.0938 0-5.6016 2.5078-5.6016 5.6016v5.6016h-5.6016c-3.0938 0-5.6016 2.5078-5.6016 5.6016s2.5039 5.6016 5.6016 5.6016h5.6016v5.6016c0 3.0938 2.5039 5.6016 5.6016 5.6016 3.0938 0 5.6016-2.5078 5.6016-5.6016v-5.6016z"/><path d="m534.8 397.6h-5.6016v-5.6016c0-3.0938-2.5039-5.6016-5.6016-5.6016-3.0938 0-5.6016 2.5078-5.6016 5.6016v5.6016h-5.6016c-3.0938 0-5.6016 2.5078-5.6016 5.6016s2.5039 5.6016 5.6016 5.6016h5.6016v5.6016c0 3.0938 2.5039 5.6016 5.6016 5.6016 3.0938 0 5.6016-2.5078 5.6016-5.6016v-5.6016h5.6016c3.0938 0 5.6016-2.5078 5.6016-5.6016 0-3.0977-2.5078-5.6016-5.6016-5.6016z"/><path d="m277.2 151.2h5.6016v5.6016c0 3.0938 2.5039 5.6016 5.6016 5.6016 3.0938 0 5.6016-2.5078 5.6016-5.6016v-5.6016h5.6016c3.0938 0 5.6016-2.5078 5.6016-5.6016s-2.5039-5.6016-5.6016-5.6016h-5.6016v-5.6016c0-3.0938-2.5039-5.6016-5.6016-5.6016-3.0938 0-5.6016 2.5078-5.6016 5.6016v5.6016h-5.6016c-3.0938 0-5.6016 2.5078-5.6016 5.6016.003906 3.0938 2.5078 5.6016 5.6016 5.6016z"/><path d="m159.6 123.2h5.6016v5.6016c0 3.0938 2.5039 5.6016 5.6016 5.6016 3.0938 0 5.6016-2.5078 5.6016-5.6016v-5.6016h5.6016c3.0938 0 5.6016-2.5078 5.6016-5.6016s-2.5039-5.6016-5.6016-5.6016h-5.6016v-5.6016c0-3.0938-2.5039-5.6016-5.6016-5.6016-3.0938 0-5.6016 2.5078-5.6016 5.6016v5.6016h-5.6016c-3.0938 0-5.6016 2.5078-5.6016 5.6016s2.5039 5.6016 5.6016 5.6016z"/><path d="m456.4 358.4c-12.355 0-22.398 10.051-22.398 22.398 0 12.352 10.047 22.398 22.398 22.398 12.355 0 22.398-10.051 22.398-22.398s-10.047-22.398-22.398-22.398zm0 33.602c-6.1758 0-11.199-5.0234-11.199-11.199s5.0273-11.199 11.199-11.199c6.1758 0 11.199 5.0234 11.199 11.199s-5.0273 11.199-11.199 11.199z"/><path d="m204.4 224c12.355 0 22.398-10.051 22.398-22.398 0-12.352-10.047-22.398-22.398-22.398-12.355 0-22.398 10.051-22.398 22.398-.003906 12.348 10.043 22.398 22.398 22.398zm0-33.602c6.1758 0 11.199 5.0234 11.199 11.199 0 6.1758-5.0273 11.199-11.199 11.199-6.1758 0-11.199-5.0234-11.199-11.199-.003906-6.1758 5.0234-11.199 11.199-11.199z"/></svg>