<svg fill="#215F74" viewBox="0 0 700 700" xmlns="http://www.w3.org/2000/svg"><path d="m539.34 110.37c11.926 0 21.629-9.5781 21.629-21.352 0-11.746-9.7031-21.301-21.629-21.301s-21.629 9.5547-21.629 21.301c0 11.773 9.7031 21.352 21.629 21.352zm0-35.188c7.8086 0 14.16 6.207 14.16 13.836 0 7.6562-6.3516 13.883-14.16 13.883s-14.16-6.2266-14.16-13.883c0-7.6289 6.3516-13.836 14.16-13.836z"/><path d="m473.51 110.37c11.926 0 21.629-9.5781 21.629-21.352 0-11.746-9.707-21.301-21.629-21.301-11.926 0-21.629 9.5547-21.629 21.301.003907 11.773 9.707 21.352 21.629 21.352zm0-35.188c7.8086 0 14.164 6.207 14.164 13.836 0 7.6562-6.3555 13.883-14.164 13.883-7.8086 0-14.16-6.2266-14.16-13.883 0-7.6289 6.3516-13.836 14.16-13.836z"/><path d="m415.83 108.94h10.566c2.0625 0 3.7344-1.668 3.7344-3.7344 0-2.0625-1.668-3.7344-3.7344-3.7344h-10.566c-2.0625 0-3.7344 1.668-3.7344 3.7344.003906 2.0664 1.6719 3.7344 3.7344 3.7344z"/><path d="m376.82 108.94h10.566c2.0625 0 3.7344-1.668 3.7344-3.7344 0-2.0625-1.668-3.7344-3.7344-3.7344h-10.566c-2.0625 0-3.7344 1.668-3.7344 3.7344s1.668 3.7344 3.7344 3.7344z"/><path d="m351.29 105.2c0-2.0625-1.668-3.7344-3.7344-3.7344l-204.8.003906c-2.0625 0-3.7344 1.668-3.7344 3.7344 0 2.0625 1.668 3.7344 3.7344 3.7344h204.8c2.0664-.003906 3.7344-1.6719 3.7344-3.7383z"/><path d="m415.83 76.613h10.566c2.0625 0 3.7344-1.668 3.7344-3.7344 0-2.0625-1.668-3.7344-3.7344-3.7344h-10.566c-2.0625 0-3.7344 1.668-3.7344 3.7344.003906 2.0664 1.6719 3.7344 3.7344 3.7344z"/><path d="m376.82 76.613h10.566c2.0625 0 3.7344-1.668 3.7344-3.7344 0-2.0625-1.668-3.7344-3.7344-3.7344h-10.566c-2.0625 0-3.7344 1.668-3.7344 3.7344s1.668 3.7344 3.7344 3.7344z"/><path d="m142.76 76.613h204.8c2.0625 0 3.7344-1.668 3.7344-3.7344 0-2.0625-1.668-3.7344-3.7344-3.7344l-204.8.003907c-2.0625 0-3.7344 1.668-3.7344 3.7344.003906 2.0625 1.6719 3.7305 3.7344 3.7305z"/><path d="m540.2 274.59c28.93 0 52.469-23.195 52.469-51.707 0-28.516-23.539-51.711-52.469-51.711h-21.863v-30.41h21.863c28.93-.003906 52.469-23.203 52.469-51.715 0-28.516-23.539-51.711-52.469-51.711h-380.4c-28.93 0-52.469 23.195-52.469 51.711s23.539 51.711 52.469 51.711h21.863v30.41h-21.863c-28.93 0-52.469 23.199-52.469 51.715s23.539 51.707 52.469 51.707h21.863v30.414h-21.863c-28.93 0-52.469 23.195-52.469 51.707 0 28.516 23.539 51.711 52.469 51.711l184.02.003906v72.816c-9.0898 1.6055-16.18 8.9492-17.266 18.094h-122.82c-2.0625 0-3.7344 1.668-3.7344 3.7344 0 2.0625 1.668 3.7344 3.7344 3.7344h123.32c2.3242 9.125 10.711 15.867 20.5 15.867 9.8047 0 18.199-6.7656 20.5-15.867h123.36c2.0625 0 3.7344-1.668 3.7344-3.7344 0-2.0625-1.668-3.7344-3.7344-3.7344h-122.86c-1.0859-9.1445-8.1797-16.488-17.27-18.094v-72.816h188.92c28.93 0 52.469-23.199 52.469-51.715s-23.539-51.707-52.469-51.707h-21.863v-30.414zm-178.96 227.2c0 .32422.007812.62891-.027344.99609-.54297 6.9648-6.5469 12.422-13.664 12.422-7.1172 0-13.121-5.457-13.668-12.457-.027343-.3125-.023437-.625-.023437-.96094 0-7.4023 6.1406-13.422 13.691-13.422s13.691 6.0195 13.691 13.422zm-246.44-412.74c0-24.395 20.188-44.242 45-44.242h380.4c24.812 0 45 19.848 45 44.242 0 24.398-20.188 44.246-45 44.246h-380.4c-24.812 0-45-19.848-45-44.246zm74.332 51.711h321.74v30.41h-321.74zm-74.332 82.125c0-24.398 20.188-44.246 45-44.246h380.4c24.812 0 45 19.848 45 44.246 0 24.395-20.188 44.242-45 44.242h-380.4c-24.812 0-45-19.852-45-44.242zm470.4 133.83c0 24.398-20.188 44.246-45 44.246h-380.4c-24.812 0-45-19.848-45-44.246 0-24.395 20.188-44.242 45-44.242h380.4c24.812 0 45 19.848 45 44.242zm-74.332-51.707h-321.73v-30.414h321.74z"/><path d="m539.34 244.2c11.926 0 21.629-9.5781 21.629-21.352 0-11.746-9.7031-21.301-21.629-21.301s-21.629 9.5547-21.629 21.301c0 11.773 9.7031 21.352 21.629 21.352zm0-35.188c7.8086 0 14.16 6.207 14.16 13.836 0 7.6562-6.3516 13.883-14.16 13.883s-14.16-6.2266-14.16-13.883c0-7.6289 6.3516-13.836 14.16-13.836z"/><path d="m473.51 244.2c11.926 0 21.629-9.5781 21.629-21.352 0-11.746-9.707-21.301-21.629-21.301-11.926 0-21.629 9.5547-21.629 21.301.003907 11.773 9.707 21.352 21.629 21.352zm0-35.188c7.8086 0 14.164 6.207 14.164 13.836 0 7.6562-6.3555 13.883-14.164 13.883-7.8086 0-14.16-6.2266-14.16-13.883 0-7.6289 6.3516-13.836 14.16-13.836z"/><path d="m415.83 242.77h10.566c2.0625 0 3.7344-1.668 3.7344-3.7344 0-2.0625-1.668-3.7344-3.7344-3.7344h-10.566c-2.0625 0-3.7344 1.668-3.7344 3.7344.003906 2.0625 1.6719 3.7344 3.7344 3.7344z"/><path d="m376.82 242.77h10.566c2.0625 0 3.7344-1.668 3.7344-3.7344 0-2.0625-1.668-3.7344-3.7344-3.7344h-10.566c-2.0625 0-3.7344 1.668-3.7344 3.7344 0 2.0625 1.668 3.7344 3.7344 3.7344z"/><path d="m351.29 239.04c0-2.0625-1.668-3.7344-3.7344-3.7344h-204.8c-2.0625 0-3.7344 1.668-3.7344 3.7344 0 2.0625 1.668 3.7344 3.7344 3.7344h204.8c2.0664 0 3.7344-1.6719 3.7344-3.7344z"/><path d="m415.83 210.45h10.566c2.0625 0 3.7344-1.668 3.7344-3.7344 0-2.0625-1.668-3.7344-3.7344-3.7344h-10.566c-2.0625 0-3.7344 1.668-3.7344 3.7344.003906 2.0625 1.6719 3.7344 3.7344 3.7344z"/><path d="m376.82 210.45h10.566c2.0625 0 3.7344-1.668 3.7344-3.7344 0-2.0625-1.668-3.7344-3.7344-3.7344h-10.566c-2.0625 0-3.7344 1.668-3.7344 3.7344 0 2.0625 1.668 3.7344 3.7344 3.7344z"/><path d="m142.76 210.45h204.8c2.0625 0 3.7344-1.668 3.7344-3.7344 0-2.0625-1.668-3.7344-3.7344-3.7344h-204.8c-2.0625 0-3.7344 1.668-3.7344 3.7344.003906 2.0625 1.6719 3.7344 3.7344 3.7344z"/><path d="m539.34 378.04c11.926 0 21.629-9.5781 21.629-21.352 0-11.746-9.7031-21.305-21.629-21.305s-21.629 9.5586-21.629 21.305c0 11.773 9.7031 21.352 21.629 21.352zm0-35.188c7.8086 0 14.16 6.207 14.16 13.84 0 7.6562-6.3516 13.883-14.16 13.883s-14.16-6.2266-14.16-13.883c0-7.6328 6.3516-13.84 14.16-13.84z"/><path d="m473.51 335.38c-11.926 0-21.629 9.5586-21.629 21.305 0 11.773 9.7031 21.352 21.629 21.352s21.629-9.5781 21.629-21.352c.003906-11.742-9.7031-21.305-21.629-21.305zm0 35.191c-7.8086 0-14.16-6.2266-14.16-13.883 0-7.6289 6.3516-13.84 14.16-13.84 7.8086 0 14.164 6.207 14.164 13.84 0 7.6562-6.3516 13.883-14.164 13.883z"/><path d="m426.39 369.14h-10.566c-2.0625 0-3.7344 1.668-3.7344 3.7344 0 2.0625 1.668 3.7344 3.7344 3.7344h10.566c2.0625 0 3.7344-1.668 3.7344-3.7344 0-2.0625-1.6719-3.7344-3.7344-3.7344z"/><path d="m387.38 369.14h-10.566c-2.0625 0-3.7344 1.668-3.7344 3.7344 0 2.0625 1.668 3.7344 3.7344 3.7344h10.566c2.0625 0 3.7344-1.668 3.7344-3.7344 0-2.0625-1.668-3.7344-3.7344-3.7344z"/><path d="m347.56 369.14h-204.8c-2.0625 0-3.7344 1.668-3.7344 3.7344 0 2.0625 1.668 3.7344 3.7344 3.7344h204.8c2.0625 0 3.7344-1.668 3.7344-3.7344 0-2.0625-1.668-3.7344-3.7305-3.7344z"/><path d="m426.39 336.81h-10.566c-2.0625 0-3.7344 1.668-3.7344 3.7344 0 2.0625 1.668 3.7344 3.7344 3.7344h10.566c2.0625 0 3.7344-1.668 3.7344-3.7344 0-2.0625-1.6719-3.7344-3.7344-3.7344z"/><path d="m387.38 336.81h-10.566c-2.0625 0-3.7344 1.668-3.7344 3.7344 0 2.0625 1.668 3.7344 3.7344 3.7344h10.566c2.0625 0 3.7344-1.668 3.7344-3.7344 0-2.0625-1.668-3.7344-3.7344-3.7344z"/><path d="m347.56 336.81h-204.8c-2.0625 0-3.7344 1.668-3.7344 3.7344 0 2.0625 1.668 3.7344 3.7344 3.7344h204.8c2.0625 0 3.7344-1.668 3.7344-3.7344 0-2.0625-1.668-3.7344-3.7305-3.7344z"/></svg>