<svg viewBox="-10 -10 90 90" xmlns="http://www.w3.org/2000/svg"><g stroke="#215f74" stroke-miterlimit="10" stroke-width="1.2"><circle cx="36.36" cy="13.34" fill="none" r="12.09"/><path d="m29.76 39.55h11.49a3.71 3.71 0 0 0 3.75-3.71 3.71 3.71 0 0 0 -3.71-3.72h-5.57a34.26 34.26 0 0 1 -11.56-2c-2.52-.85-7.55-.44-9.43 1.45l-5.33 4.36 12.2 13.54 1.06-.87a15.23 15.23 0 0 1 9.62-3.44h5.1a14.6 14.6 0 0 0 10.47-4.42l9.5-9.74a4 4 0 0 0 .06-5.67 4.14 4.14 0 0 0 -5.85 0l-7.82 7.86" fill="#fff"/><rect fill="#fff" height="10.33" rx="2.56" transform="matrix(.66938997 .74291121 -.74291121 .66938997 38.09 6.4)" width="23.36" x=".17" y="40.83"/><g fill="none"><path d="m39.26 6.79h-2.91a3.29 3.29 0 1 0 0 6.57 3.28 3.28 0 0 1 0 6.56h-2.91"/><path d="m36.36 6.79v-2.25"/><path d="m36.36 22.15v-2.26"/></g></g></svg>