<svg fill="#215F74" viewBox="0 0 700 700" xmlns="http://www.w3.org/2000/svg"><path d="m399.19 198.84c-17.742 0-32.18 14.414-32.18 32.133 0 17.715 14.438 32.129 32.18 32.129 17.746 0 32.184-14.414 32.184-32.129 0-17.723-14.438-32.133-32.184-32.133zm0 53.059c-11.566 0-20.977-9.3906-20.977-20.93 0-11.543 9.4102-20.934 20.977-20.934 11.57 0 20.984 9.3906 20.984 20.934 0 11.539-9.4141 20.93-20.984 20.93z"/><path d="m405.55 173.7c-1.6992-.1875-3.4297-.27344-5.168-.30859-.33984-.003906-.66797-.058593-1.0117-.058593-.027344 0-.054688.003906-.082032.003906-.03125 0-.0625-.003906-.09375-.003906-2.2266 0-4.4141.15625-6.5781.40234-49.949 4.0859-88.496 51.629-90.184 53.746-1.625 2.043-1.625 4.9375 0 6.9766 1.6133 2.0273 37.062 45.742 83.949 53.016 4.1289.93359 8.4023 1.4727 12.812 1.4727 4.1484 0 8.1875-.45703 12.09-1.2891 47.414-6.7617 83.383-51.156 85.012-53.199 1.625-2.043 1.625-4.9375 0-6.9766-1.6914-2.125-40.527-50.016-90.746-53.781zm40.348 57.438c0 22.273-15.746 40.922-36.707 45.504-3.2344.44141-6.5.75781-9.8203.75781-3.6328 0-7.1992-.37109-10.727-.89844-20.68-4.793-36.152-23.289-36.152-45.363 0-24.02 18.305-43.844 41.727-46.332 1.6836-.125 3.3633-.26562 5.0664-.26953 1.1992.003907 2.3789.089844 3.5586.17969.38281.019531.76953.035156 1.1523.0625 23.504 2.4023 41.902 22.277 41.902 46.359zm-131.69-.17188c5.6016-6.2578 18.68-19.719 36.027-30.547-5.6328 8.9141-8.9414 19.426-8.9414 30.719 0 11.039 3.1719 21.324 8.5703 30.109-17.148-10.789-30.094-24.078-35.656-30.281zm134.07 30.695c5.5547-8.8711 8.8242-19.312 8.8242-30.523 0-11.426-3.3828-22.059-9.1367-31.039 17.605 10.887 30.902 24.555 36.566 30.871-5.625 6.2852-18.793 19.84-36.254 30.691z"/><path d="m303.95 136.08c-52.418 52.414-52.418 137.7 0 190.12 26.211 26.211 60.625 39.312 95.059 39.312 34.422 0 68.855-13.109 95.062-39.312 52.418-52.414 52.418-137.7 0-190.12-52.422-52.414-137.71-52.414-190.12 0zm182.2 182.2c-48.055 48.047-126.24 48.047-174.29 0-48.047-48.047-48.047-126.23 0-174.28 24.023-24.023 55.578-36.035 87.141-36.035 31.559 0 63.121 12.012 87.145 36.035 48.047 48.051 48.047 126.23 0 174.28z"/><path d="m275.28 107.41c-60.73 60.73-67.355 155.33-19.977 223.51l-23.66 23.66c-8.1836-2.668-17.523-.84766-24.012 5.6406l-68.621 68.625c-8.2891 8.2891-12.855 19.352-12.855 31.148 0 11.801 4.5664 22.859 12.855 31.148 8.2891 8.293 19.352 12.859 31.148 12.859 11.801 0 22.859-4.5664 31.148-12.855l68.629-68.625c6.4883-6.4922 8.3008-15.828 5.6367-24.008l23.664-23.66c29.879 20.762 64.816 31.195 99.773 31.195 44.812 0 89.621-17.059 123.73-51.168 33.055-33.055 51.254-77 51.254-123.74 0-46.742-18.199-90.688-51.254-123.73-68.223-68.223-179.23-68.234-247.46 0zm-13.262 307.19-68.629 68.625c-6.1719 6.1758-14.422 9.5781-23.23 9.5781-8.8047 0-17.059-3.4023-23.23-9.5742-6.1758-6.1758-9.5742-14.426-9.5742-23.23 0-8.8047 3.4023-17.055 9.5742-23.23l68.629-68.629c2.418-2.418 5.5938-3.625 8.7656-3.625 3.1758 0 6.3555 1.207 8.7734 3.625l28.938 28.938c4.8164 4.8359 4.8125 12.691-.015625 17.523zm7.5039-25.875-28.094-28.09 20.625-20.625c4.0898 5.1367 8.4766 10.117 13.227 14.867s9.7305 9.1367 14.867 13.227zm245.3-41.766c-63.859 63.848-167.77 63.859-231.63 0-63.859-63.863-63.859-167.77 0-231.63 31.934-31.93 73.871-47.895 115.82-47.895 41.941 0 83.879 15.965 115.81 47.895 63.859 63.863 63.859 167.77 0 231.63z"/></svg>