<svg height="700pt" viewBox="0 0 700 700" width="700pt" xmlns="http://www.w3.org/2000/svg"><g fill="none" stroke="#000" stroke-linecap="round" stroke-linejoin="round" stroke-miterlimit="10" transform="matrix(5.6 0 0 5.6 70 0)"><path d="m77.111 52.157h-58.144c-1.4411 0-2.6193 1.1788-2.6193 2.62v12.719c0 1.4411 1.1782 2.62 2.6193 2.62h58.145c1.4418 0 2.6207-1.1788 2.6207-2.62v-12.719c-.000697-1.4411-1.1788-2.62-2.6221-2.62zm0 0"/><path d="m25.048 61.137c0 1.1077-1.6622 1.1077-1.6622 0s1.6622-1.1077 1.6622 0"/><path d="m33.169 61.137c0 1.1091-1.6636 1.1091-1.6636 0s1.6636-1.1091 1.6636 0"/><path d="m41.289 61.137c0 1.1077-1.6622 1.1077-1.6622 0s1.6622-1.1077 1.6622 0"/><path d="m77.111 29.413h-58.144c-1.4411 0-2.6193 1.1802-2.6193 2.6207v12.719c0 1.4418 1.1782 2.6207 2.6193 2.6207h58.145c1.4418 0 2.6207-1.1789 2.6207-2.6207v-12.718c-.000697-1.4411-1.1788-2.6214-2.6221-2.6214zm0 0"/><path d="m25.048 38.394c0 1.1077-1.6622 1.1077-1.6622 0 0-1.1084 1.6622-1.1084 1.6622 0"/><path d="m33.169 38.394c0 1.1091-1.6636 1.1091-1.6636 0 0-1.1098 1.6636-1.1098 1.6636 0"/><path d="m41.289 38.394c0 1.1077-1.6622 1.1077-1.6622 0 0-1.1084 1.6622-1.1084 1.6622 0"/><path d="m77.111 6.6713h-58.144c-1.4411 0-2.6193 1.1788-2.6193 2.6207v12.719c0 1.4397 1.1782 2.6193 2.6193 2.6193h58.145c1.4418 0 2.6207-1.1788 2.6207-2.6193v-12.719c-.000697-1.4418-1.1788-2.6207-2.6221-2.6207zm0 0"/><path d="m25.048 15.651c0 1.1084-1.6622 1.1084-1.6622 0 0-1.1077 1.6622-1.1077 1.6622 0"/><path d="m33.169 15.651c0 1.1098-1.6636 1.1098-1.6636 0 0-1.1091 1.6636-1.1091 1.6636 0"/><path d="m41.289 15.651c0 1.1084-1.6622 1.1084-1.6622 0 0-1.1077 1.6622-1.1077 1.6622 0"/><path d="m51.934 89.843h15.708"/><path d="m28.439 89.843h15.708"/><path d="m51.934 89.843c0 2.1498-1.7432 3.893-3.893 3.893-2.1505 0-3.893-1.7432-3.893-3.893s1.7425-3.893 3.893-3.893c2.1498 0 3.893 1.7432 3.893 3.893"/><path d="m48.04 70.614v15.334"/></g></svg>