<svg fill="#215F74" viewBox="0 0 700 700" xmlns="http://www.w3.org/2000/svg"><path d="m411.56 38.719c-99.012 0-179.28 80.387-179.28 179.36 0 35.98 10.613 69.539 28.887 97.641l-139.71 139.81c-15.125 15.129-16.57 38.836-1.0508 54.07 7.7188 7.5781 17.387 11.141 26.961 10.672 9.5781-.46484 18.906-4.7227 26.613-11.898l146.37-136.14c26.766 15.879 57.852 25.199 91.215 25.199 99.012 0 179.46-80.387 179.46-179.36s-80.441-179.36-179.46-179.36zm0 11.199c92.957 0 168.25 75.238 168.25 168.16s-75.293 168.16-168.25 168.16c-32.793 0-63.254-9.3398-89.117-25.547-2.1289-1.3984-4.9336-1.1836-6.8281.52344l-149.17 138.94c-6.0312 5.6172-13.02 8.6016-19.609 8.9258s-12.883-1.7773-18.559-7.3477c-11.273-11.066-10.371-26.898 1.0508-38.32l142.86-142.96h.003907c1.8516-1.8789 2.1445-4.793.69922-7-18.633-27.062-29.414-59.996-29.414-95.367 0-92.922 75.121-168.16 168.08-168.16zm0 33.945c-74.195 0-134.46 60.234-134.46 134.39s60.266 134.39 134.46 134.39 134.46-60.234 134.46-134.39-60.266-134.39-134.46-134.39zm0 11.199c68.141 0 123.26 55.086 123.26 123.19 0 68.102-55.117 123.19-123.26 123.19s-123.26-55.086-123.26-123.19c0-68.102 55.117-123.19 123.26-123.19z"/></svg>